<?xml version="1.0" standalone="no"?> <!DOCTYPE svg PUBLIC "-//W3C//DTD SVG 1.0//EN" "http://www.w3.org/TR/2001/REC-SVG-20010904/DTD/svg10.dtd" > <svg xmlns="http://www.w3.org/2000/svg" width="100%" height="100%">
<defs >
<font id="SC" horiz-adv-x="512" ><font-face
    font-family="SC Sans Web"
    units-per-em="1000"
    panose-1="2 13 2 4 3 5 2 5 2 3"
    ascent="818"
    descent="-182"
    alphabetic="0" />
<missing-glyph horiz-adv-x="500" />
<glyph unicode=" " glyph-name="space" horiz-adv-x="155" />
<glyph unicode="!" glyph-name="exclam" horiz-adv-x="171" d="M90 177H79L77 436V715H92V436L90 177ZM94 0H77V55H94V0Z" />
<glyph unicode="&quot;" glyph-name="quotedbl" horiz-adv-x="222" d="M65 525H50V715H65V525ZM172 525H157V715H172V525Z" />
<glyph unicode="#" glyph-name="numbersign" horiz-adv-x="538" d="M73 460H182L217 682H232L197 460H372L407 682H422L387 460H499L497 447H385L354 254H465L463 241H352L314 0H299L337 241H162L124 0H109L147 241H39L41 254H149L180 447H71L73 460ZM164 254H339L370
447H195L164 254Z" />
<glyph unicode="$" glyph-name="dollar" horiz-adv-x="567" d="M290 703Q390 700 442 660T508 532H493Q481 613 432 649T290 689V372Q350 362 395 349T470 315T514 263T529 185Q529 141 511 107T460 49T385 13T290 0V-81H276V0Q214 2 168 18T91 63T44 131T24 218H39Q42
174 57 138T102 74T174 32T276 14V360Q219 370 178 383T109 415T70 463T57 530Q57 569 73 601T118 655T187 690T276 703V758H290V703ZM514 185Q514 227 501 256T461 304T391 336T290 358V14Q337 14 378 25T449 59T496 113T514 185ZM72 530Q72 495 83 470T119 427T183
397T276 375V689Q231 689 194 678T129 646T87 596T72 530Z" />
<glyph unicode="%" glyph-name="percent" horiz-adv-x="666" d="M545 685H562L133 0H116L545 685ZM168 327Q105 327 69 375T32 504Q32 585 69 633T168 681Q228 681 264 634T300 504Q300 424 265 376T168 327ZM168 341Q225 341 255 385T285 504Q285 581 254 624T168
667Q114 667 81 623T47 504Q47 430 79 386T168 341ZM502 -8Q439 -8 403 40T366 169Q366 250 403 298T502 346Q562 346 598 299T634 169Q634 89 599 41T502 -8ZM502 6Q559 6 589 50T619 169Q619 246 588 289T502 332Q447 332 414 288T381 169Q381 95 413 51T502
6Z" />
<glyph unicode="&amp;" glyph-name="ampersand" horiz-adv-x="565" d="M124 571Q124 626 158 662T258 699Q284 699 307 691T347 666T375 625T386 568Q386 539 377 515T349 470T304 429T243 386L452 136Q474 174 486 220T500 318H515Q513 265 500 216T461 124L565
0H548L454 112Q419 58 367 26T246 -7Q207 -7 172 5T109 39T65 92T48 164Q48 206 61 238T99 296T154 344T222 389L210 403Q191 426 175 446T148 486T131 526T124 571ZM247 7Q310 7 360 38T444 124L231 378Q199 358 169 338T116 293T78 237T63 164Q63 129 78 100T118
51T176 19T247 7ZM139 571Q139 548 146 527T165 487T191 449T221 412L234 396Q303 440 337 477T371 568Q371 622 340 653T258 685Q199 685 169 653T139 571Z" />
<glyph unicode="&apos;" glyph-name="quotesingle" horiz-adv-x="115" d="M65 525H50V715H65V525Z" />
<glyph unicode="(" glyph-name="parenleft" horiz-adv-x="248" d="M219 754Q195 715 172 669T132 570T105 458T94 335Q94 265 103 203T129 86T169 -20T219 -118H203Q176 -71 153 -21T114 84T88 202T79 335Q79 401 89 459T116 570T156 668T203 754H219Z" />
<glyph unicode=")" glyph-name="parenright" horiz-adv-x="248" d="M46 754Q70 714 92 668T132 570T160 460T170 335Q170 264 161 202T135 85T96 -21T46 -118H30Q57 -71 80 -21T119 85T145 203T155 335Q155 399 145 458T117 569T77 668T30 754H46Z" />
<glyph unicode="*" glyph-name="asterisk" horiz-adv-x="352" d="M168 582V706H183V582L296 620L300 607L187 569L259 467L248 459L176 561L105 459L93 467L164 569L52 607L56 620L168 582Z" />
<glyph unicode="+" glyph-name="plus" horiz-adv-x="552" d="M61 334H268V546H283V334H491V320H283V106H268V320H61V334Z" />
<glyph unicode="," glyph-name="comma" horiz-adv-x="120" d="M19 -103Q42 -84 47 -57T52 0V55H68V-3Q68 -35 61 -66T19 -120V-103Z" />
<glyph unicode="-" glyph-name="hyphen" horiz-adv-x="314" d="M46 283H268V268H46V283Z" />
<glyph unicode="." glyph-name="period" horiz-adv-x="121" d="M69 0H52V55H69V0Z" />
<glyph unicode="/" glyph-name="slash" horiz-adv-x="363" d="M40 0H24L323 715H339L40 0Z" />
<glyph unicode="0" glyph-name="zero" horiz-adv-x="604" d="M303 -7Q245 -7 199 18T120 88T70 198T52 343Q52 424 70 488T122 598T202 668T303 693Q358 693 403 670T482 601T533 491T552 343Q552 263 535 199T485 89T407 18T303 -7ZM303 7Q357 7 400 31T474 99T521
205T537 343Q537 421 520 483T472 589T398 656T303 679Q251 679 208 656T134 589T85 483T67 343Q67 267 83 205T130 99T204 31T303 7Z" />
<glyph unicode="1" glyph-name="one" horiz-adv-x="305" d="M219 688V0H204V624Q184 572 143 554T42 535V549Q76 549 104 555T153 577T186 620T204 688H219Z" />
<glyph unicode="2" glyph-name="two" horiz-adv-x="535" d="M491 0H39Q40 61 61 105T115 184T190 244T279 293Q319 313 355 332T418 375T460 429T476 502Q476 542 463 576T424 634T361 672T275 686Q224 686 186 669T122 624T83 558T70 482H56Q56 523 70 562T111
632T180 681T275 700Q326 700 366 685T433 644T475 581T490 502Q490 457 474 425T430 368T365 323T285 281Q242 260 202 236T129 180T77 108T54 14H491V0Z" />
<glyph unicode="3" glyph-name="three" horiz-adv-x="562" d="M235 371H304Q345 371 377 382T432 412T466 456T478 511Q478 550 463 581T421 633T356 667T273 679Q220 679 182 664T119 623T80 564T64 494H50Q52 533 66 569T108 632T176 676T273 693Q321 693 361
680T430 644T476 587T492 511Q492 458 458 418T361 364Q395 358 424 345T475 310T509 259T522 194Q522 147 505 110T456 47T381 7T285 -7Q226 -7 180 9T100 55T49 123T26 208H40Q44 164 62 127T111 64T185 22T285 7Q334 7 375 19T445 56T491 115T508 195Q508 234
492 264T448 315T383 346T304 357H235V371Z" />
<glyph unicode="4" glyph-name="four" horiz-adv-x="563" d="M404 0V195H34V209L403 692H419V209H533V195H419V0H404ZM52 209H404V669L52 209Z" />
<glyph unicode="5" glyph-name="five" horiz-adv-x="536" d="M456 671H145L75 361Q101 393 148 417T266 442Q321 442 364 424T436 376T480 305T496 218Q496 165 478 123T428 52T354 8T266 -7Q207 -7 165 9T94 53T51 114T31 184H46Q51 151 65 119T105 63T170 23T266
7Q309 7 348 21T416 62T463 128T481 218Q481 261 467 299T426 366T358 411T266 428Q226 428 194 420T138 397T97 366T68 331H54L134 685H456V671Z" />
<glyph unicode="6" glyph-name="six" horiz-adv-x="570" d="M67 343Q67 329 67 312T69 278T71 244T75 217Q76 260 91 299T135 368T204 414T298 432Q347 432 388 416T460 372T507 305T524 220Q524 165 505 123T456 52T386 8T305 -7Q257 -7 216 7T143 49Q99 89 76
156T52 332Q52 427 69 495T117 607T194 672T297 693Q385 693 440 649T503 526H488Q480 600 429 639T297 679Q189 679 128 598T67 343ZM88 208Q88 163 104 126T150 62T219 22T305 7Q343 7 379 21T445 62T491 128T509 220Q509 263 493 299T449 362T382 403T299 418Q246
418 206 400T140 351T101 284T88 208Z" />
<glyph unicode="7" glyph-name="seven" horiz-adv-x="518" d="M164 0Q165 96 185 183T245 352T343 514T479 671H31V685H499V671Q418 590 359 511T260 349T200 181T179 0H164Z" />
<glyph unicode="8" glyph-name="eight" horiz-adv-x="578" d="M292 -7Q236 -7 190 7T110 47T59 109T41 190Q41 265 90 314T223 378Q157 393 120 434T83 533Q83 569 98 598T140 649T206 682T289 694Q335 694 373 683T438 650T480 599T495 533Q495 474 458 433T356
378Q439 364 488 315T537 190Q537 146 520 110T470 47T392 7T292 -7ZM292 7Q344 7 386 20T459 57T505 115T522 190Q522 275 460 322T289 370Q236 370 194 358T120 322T73 266T56 190Q56 148 73 115T121 57T195 20T292 7ZM289 384Q332 384 367 394T427 424T466 471T480
533Q480 566 466 593T427 639T367 669T289 680Q247 680 212 670T151 640T112 593T98 533Q98 500 112 473T151 426T211 395T289 384Z" />
<glyph unicode="9" glyph-name="nine" horiz-adv-x="568" d="M505 324Q505 342 505 362T503 402T501 438T497 466Q495 422 479 384T435 317T365 271T271 254Q224 254 183 270T112 314T65 382T47 468Q47 525 65 567T115 637T185 679T265 693Q305 693 343 684T416
649Q441 631 460 604T493 538T513 447T520 327Q520 252 508 192T469 89Q437 38 389 16T279 -7Q235 -7 198 4T131 37T83 90T59 160H74Q85 88 141 48T278 7Q338 7 382 27T456 96Q483 141 494 196T505 324ZM484 478Q484 517 470 553T429 617T360 662T265 679Q227 679
191 666T126 627T80 561T62 468Q62 425 78 389T122 325T188 283T271 268Q326 268 366 286T432 335T471 402T484 478Z" />
<glyph unicode=":" glyph-name="colon" horiz-adv-x="127" d="M72 328H55V383H72V328ZM72 0H55V55H72V0Z" />
<glyph unicode=";" glyph-name="semicolon" horiz-adv-x="126" d="M22 -103Q45 -84 50 -57T55 0V55H71V-3Q71 -35 64 -66T22 -120V-103ZM71 328H54V383H71V328Z" />
<glyph unicode="&lt;" glyph-name="less" horiz-adv-x="513" d="M451 134L58 306V318L451 491V475L77 312L451 150V134Z" />
<glyph unicode="=" glyph-name="equal" horiz-adv-x="548" d="M61 388H487V374H61V388ZM61 253H487V239H61V253Z" />
<glyph unicode="&gt;" glyph-name="greater" horiz-adv-x="513" d="M62 150L436 312L62 475V491L455 318V306L62 133V150Z" />
<glyph unicode="?" glyph-name="question" horiz-adv-x="483" d="M218 178Q218 215 222 242T239 291T271 333T321 380Q340 396 359 411T394 445T420 487T430 543Q430 579 416 609T378 661T319 696T243 709Q193 709 156 694T94 651T56 588T40 509H25Q26 553 40
592T81 660T148 706T243 723Q289 723 326 709T389 671T430 614T445 543Q445 510 436 486T412 443T375 406T330 369Q302 346 284 327T254 287T237 239T232 178H218ZM234 0H217V55H234V0Z" />
<glyph unicode="@" glyph-name="at" horiz-adv-x="878" d="M407 86Q367 86 338 101T290 141T261 198T251 266Q251 319 264 364T303 443T363 495T444 514Q502 514 541 480T592 391L607 504H622L584 220Q577 166 598 137T670 107Q704 107 732 125T780 175T811 252T822
351Q822 435 791 498T709 604T593 668T458 690Q382 690 310 664T182 585T91 458T56 285Q56 202 84 135T163 19T285 -55T442 -82Q506 -82 556 -68T636 -39L642 -52Q612 -68 560 -82T442 -96Q353 -96 280 -69T153 9T71 129T41 285Q41 385 76 463T170 595T304 676T458
704Q530 704 598 682T719 615T804 505T837 351Q837 294 825 247T791 166T738 112T670 93Q614 93 588 125T569 212Q546 155 504 121T407 86ZM407 100Q442 100 474 118T530 170T568 248T583 345Q583 417 544 458T444 500Q402 500 369 482T313 433T278 359T266 266Q266
235 274 206T299 153T343 115T407 100Z" />
<glyph unicode="A" glyph-name="A" horiz-adv-x="604" d="M471 256H133L34 0H18L293 715H311L586 0H570L471 256ZM138 270H466L302 695L138 270Z" />
<glyph unicode="B" glyph-name="B" horiz-adv-x="624" d="M558 535Q558 478 523 437T430 378Q504 364 546 317T589 198Q589 152 572 116T524 53Q494 27 452 14T359 0H75V715H342Q389 715 428 705T497 672Q526 649 542 616T558 535ZM90 370V14H358Q406 14 445 27T513
63Q542 87 558 121T574 198Q574 237 560 268T520 321T458 356T379 370H90ZM90 384H377Q412 385 442 396T494 428T530 475T543 535Q543 577 528 608T485 660T421 691T341 701H90V384Z" />
<glyph unicode="C" glyph-name="C" horiz-adv-x="706" d="M640 510Q634 548 615 584T562 647T483 692T379 709Q305 709 246 683T147 610T85 499T63 358Q63 278 85 213T148 102T246 31T375 5Q437 5 486 25T569 80T624 159T650 253H664Q659 202 638 155T580 71Q544
35 493 13T375 -9Q301 -9 241 17T138 91T72 207T48 358Q48 438 71 505T137 620T241 696T379 723Q440 723 488 705T571 658T627 590T654 510H640Z" />
<glyph unicode="D" glyph-name="D" horiz-adv-x="676" d="M75 715H336Q414 715 469 686T559 606T611 491T628 354Q628 282 610 218T556 105T463 28T329 0H75V715ZM330 13Q395 13 447 36T536 104T593 211T613 354Q613 433 594 497T540 606T453 676T337 701H89V13H330Z" />
<glyph unicode="E" glyph-name="E" horiz-adv-x="598" d="M90 378H507V364H90V14H552V0H75V715H542V701H90V378Z" />
<glyph unicode="F" glyph-name="F" horiz-adv-x="575" d="M90 378H477V364H90V0H75V715H541V701H90V378Z" />
<glyph unicode="G" glyph-name="G" horiz-adv-x="735" d="M398 335V349H670V0H655V202Q647 157 624 119T567 52T487 7T388 -9Q307 -9 244 19T137 96T71 211T48 355Q48 428 69 495T132 612T236 693T380 723Q441 723 489 707T572 662T630 594T660 510H646Q638 551
617 587T563 651T484 693T380 709Q302 709 243 680T143 603T83 490T63 355Q63 281 84 217T147 106T249 32T388 5Q445 5 493 25T578 82T634 173T655 295V335H398Z" />
<glyph unicode="H" glyph-name="H" horiz-adv-x="671" d="M75 715H90V388H581V715H596V0H581V374H90V0H75V715Z" />
<glyph unicode="I" glyph-name="I" horiz-adv-x="169" d="M92 0H77V715H92V0Z" />
<glyph unicode="J" glyph-name="J" horiz-adv-x="465" d="M45 202V186Q45 98 90 51T219 3Q305 3 344 52T384 190V715H399V190Q399 97 356 43T219 -11Q131 -11 81 40T30 186V202H45Z" />
<glyph unicode="K" glyph-name="K" horiz-adv-x="618" d="M258 421L612 0H594L247 411L90 262V0H75V715H90V281L547 715H568L258 421Z" />
<glyph unicode="L" glyph-name="L" horiz-adv-x="551" d="M90 14H521V0H75V715H90V14Z" />
<glyph unicode="M" glyph-name="M" horiz-adv-x="815" d="M90 692V0H75V715H96L407 17L718 715H740V0H725V692L415 0H400L90 692Z" />
<glyph unicode="N" glyph-name="N" horiz-adv-x="685" d="M610 0H595L90 690V0H75V715H91L595 25V715H610V0Z" />
<glyph unicode="O" glyph-name="O" horiz-adv-x="765" d="M382 -8Q309 -8 248 19T143 95T73 210T48 357Q48 436 73 503T142 619T248 695T382 723Q455 723 516 696T622 620T692 504T717 357Q717 278 692 211T623 96T517 20T382 -8ZM382 6Q453 6 512 33T613 107T678
219T702 357Q702 431 679 495T613 607T512 682T382 709Q311 709 252 682T151 608T86 496T63 357Q63 283 86 219T151 107T252 33T382 6Z" />
<glyph unicode="P" glyph-name="P" horiz-adv-x="576" d="M90 333V0H75V715H329Q406 715 459 686Q501 663 524 623T548 525Q548 434 493 384T322 333H90ZM90 347H322Q431 347 482 393T533 525Q533 610 478 655T329 701H90V347Z" />
<glyph unicode="Q" glyph-name="Q" horiz-adv-x="765" d="M382 -9Q309 -9 248 18T143 94T73 210T48 357Q48 436 73 503T142 619T248 695T382 723Q455 723 516 696T622 620T692 504T717 357Q717 262 682 186T585 60L699 -31L690 -42L574 51Q533 22 485 7T382 -9ZM574
70Q634 118 668 192T702 357Q702 431 679 495T613 607T512 682T382 709Q311 709 252 682T151 608T86 496T63 357Q63 283 86 219T151 107T252 32T382 5Q434 5 479 20T562 61L477 130L486 141L574 70Z" />
<glyph unicode="R" glyph-name="R" horiz-adv-x="612" d="M90 0H75V715H343Q392 715 432 703T502 666T546 607T562 525Q562 453 527 406T414 344Q481 333 512 290T545 174Q546 118 549 85T557 35T566 12T574 2V0H557Q554 3 550 9T542 34T535 84T530 170Q528 247
491 290T365 335H90V0ZM90 349H336Q445 349 496 394T547 525Q547 610 492 655T343 701H90V349Z" />
<glyph unicode="S" glyph-name="S" horiz-adv-x="605" d="M45 227Q49 179 66 138T117 68T199 22T315 5Q426 5 486 54T546 184Q546 228 530 259T483 312T405 348T297 373Q239 383 195 397T120 433T75 484T60 555Q60 594 76 625T121 678T193 711T287 723Q398 723
459 668T534 521H519Q506 609 448 659T287 709Q188 709 132 668T75 555Q75 517 89 490T131 444T201 411T299 387Q361 376 410 361T492 323T543 266T561 184Q561 140 545 105T497 44T419 5T315 -9Q245 -9 193 9T106 58T52 133T30 227H45Z" />
<glyph unicode="T" glyph-name="T" horiz-adv-x="605" d="M295 0V701H30V715H575V701H310V0H295Z" />
<glyph unicode="U" glyph-name="U" horiz-adv-x="642" d="M78 715V236Q78 173 97 129T149 58T226 18T321 5Q370 5 414 17T492 57T544 129T564 236V715H579V236Q579 169 558 123T502 47T420 4T321 -9Q268 -9 221 4T139 46T84 122T63 236V715H78Z" />
<glyph unicode="V" glyph-name="V" horiz-adv-x="602" d="M301 22L567 715H584L309 0H293L18 715H35L301 22Z" />
<glyph unicode="W" glyph-name="W" horiz-adv-x="893" d="M455 715L648 28L854 715H871L656 0H640L446 685L253 0H237L22 715H39L245 29L438 715H455Z" />
<glyph unicode="X" glyph-name="X" horiz-adv-x="594" d="M290 368L42 715H60L299 380L544 715H562L308 368L572 0H554L299 355L40 0H22L290 368Z" />
<glyph unicode="Y" glyph-name="Y" horiz-adv-x="589" d="M294 337L554 715H571L302 324V0H287V324L18 715H35L294 337Z" />
<glyph unicode="Z" glyph-name="Z" horiz-adv-x="617" d="M61 715H549V701L56 14H573V0H38V14L531 701H61V715Z" />
<glyph unicode="[" glyph-name="bracketleft" horiz-adv-x="246" d="M208 -104V-118H85V754H208V740H100V-104H208Z" />
<glyph unicode="\" glyph-name="backslash" horiz-adv-x="363" d="M24 715H40L339 0H323L24 715Z" />
<glyph unicode="]" glyph-name="bracketright" horiz-adv-x="246" d="M146 -104V740H38V754H161V-118H38V-104H146Z" />
<glyph unicode="^" glyph-name="asciicircum" horiz-adv-x="395" d="M197 703L35 440H19L189 715H206L376 440H360L197 703Z" />
<glyph unicode="_" glyph-name="underscore" horiz-adv-x="396" d="M6 -152H390V-166H6V-152Z" />
<glyph unicode="`" glyph-name="grave" horiz-adv-x="458" d="M240 604H224L156 725H173L240 604Z" />
<glyph unicode="a" glyph-name="a" horiz-adv-x="505" d="M459 -4Q441 -4 430 2T413 18T405 41T403 68V116H401Q393 89 375 66T330 27T270 1T198 -8Q123 -8 78 29T32 129Q32 168 47 194T90 236T153 261T230 275Q279 281 312 288T365 305T394 329T403 367Q403 435
366 472T248 510Q169 510 125 476T75 367H60Q62 398 72 426T105 477T162 511T248 524Q334 524 376 483T418 367V69Q418 34 428 22T459 10Q470 10 477 12T490 18H492V4Q487 1 479 -1T459 -4ZM198 6Q241 6 278 18T343 54T387 111T403 186V319Q397 310 387 303T359
288T311 275T236 263Q144 252 96 224T47 129Q47 95 61 72T96 34T145 13T198 6Z" />
<glyph unicode="b" glyph-name="b" horiz-adv-x="545" d="M63 715H78V357H79Q90 400 111 431T161 483T222 514T290 524Q333 524 373 508T443 460T492 377T511 259Q511 198 494 149T448 65T377 11T288 -8Q249 -8 215 4T153 37T107 89T79 155H78V0H63V715ZM287 6Q331
6 369 23T435 73T480 152T496 258Q496 324 479 371T433 450T366 495T286 510Q241 510 203 492T137 441T94 361T78 256Q78 199 93 153T137 74T203 24T287 6Z" />
<glyph unicode="c" glyph-name="c" horiz-adv-x="523" d="M493 174Q488 135 473 102T430 45T363 6T272 -8Q217 -8 173 13T98 72T51 157T34 260Q34 314 50 362T97 446T172 503T272 524Q360 524 417 481T491 361H476Q467 401 447 429T400 475T340 501T272 510Q227
510 187 494T116 445T67 367T49 260Q49 201 67 154T115 74T186 24T272 6Q362 6 414 50T478 174H493Z" />
<glyph unicode="d" glyph-name="d" horiz-adv-x="545" d="M258 7Q303 7 341 23T408 72T451 150T467 256Q467 316 452 363T408 442T342 492T259 510Q217 510 179 496T112 450T66 372T49 258Q49 199 65 153T109 74T176 25T258 7ZM467 157H466Q447 80 391 37T257
-7Q209 -7 168 12T98 65T51 149T34 259Q34 327 52 377T101 459T172 508T255 524Q290 524 323 514T384 484T433 433T466 358H467V715H482V0H467V157Z" />
<glyph unicode="e" glyph-name="e" horiz-adv-x="522" d="M49 265Q49 208 64 161T107 79T177 25T271 6Q342 6 394 42T466 151H481Q474 119 457 90T414 40T352 5T271 -8Q213 -8 169 13T95 70T50 157T34 266Q34 319 49 366T95 448T168 503T266 524Q346 524 398 481Q441
448 464 393T490 265H49ZM475 279Q470 341 451 385T404 456T339 497T266 510Q223 510 185 495T117 450T69 377T49 279H475Z" />
<glyph unicode="f" glyph-name="f" horiz-adv-x="271" d="M240 706Q226 707 220 707T199 707Q161 707 138 688T115 614V517H239V503H115V0H100V503H30V517H100V615Q100 674 126 697T199 721Q211 721 218 721T240 720V706Z" />
<glyph unicode="g" glyph-name="g" horiz-adv-x="540" d="M462 517H477V23Q477 -23 462 -61T414 -125Q388 -146 352 -157T267 -169Q172 -169 119 -138T58 -46H73Q82 -99 130 -127T267 -155Q317 -155 353 -142T414 -104T450 -48T462 23V166H461Q441 91 388 48T256
5Q208 5 168 23T97 76T51 158T34 265Q34 330 52 378T100 459T170 508T253 524Q295 524 330 511T391 475T435 422T461 356H462V517ZM257 19Q302 19 339 36T404 84T447 161T462 262Q462 319 447 364T405 442T340 492T257 510Q215 510 178 495T112 450T66 373T49 264Q49
208 65 163T109 85T175 36T257 19Z" />
<glyph unicode="h" glyph-name="h" horiz-adv-x="495" d="M78 419H80Q90 437 106 455T145 489T199 513T270 523Q313 523 344 511T395 478T425 429T435 370V0H420V369Q420 438 380 473T269 509Q225 509 190 496T130 460T92 411T78 357V0H63V715H78V419Z" />
<glyph unicode="i" glyph-name="i" horiz-adv-x="141" d="M78 0H63V517H78V0ZM78 650H63V706H78V650Z" />
<glyph unicode="j" glyph-name="j" horiz-adv-x="163" d="M100 517V-64Q100 -106 83 -126T23 -147Q12 -147 1 -145T-20 -140V-126H-19Q-7 -130 2 -131T23 -133Q61 -133 73 -116T85 -64V517H100ZM100 650H85V706H100V650Z" />
<glyph unicode="k" glyph-name="k" horiz-adv-x="452" d="M186 297L78 191V0H63V715H78V210L389 517H409L196 307L445 0H428L186 297Z" />
<glyph unicode="l" glyph-name="l" horiz-adv-x="147" d="M81 0H66V715H81V0Z" />
<glyph unicode="m" glyph-name="m" horiz-adv-x="780" d="M399 0H384V369Q384 438 350 473T251 509Q210 509 178 496T124 460T90 411T78 357V0H63V517H78V419H80Q89 437 103 455T139 489T188 513T252 523Q318 523 352 492T395 411H397Q406 433 421 453T459 488T509
513T573 523Q613 523 641 511T686 478T712 429T720 370V0H705V369Q705 438 671 473T572 509Q531 509 499 496T445 460T411 411T399 357V0Z" />
<glyph unicode="n" glyph-name="n" horiz-adv-x="495" d="M78 419H80Q90 437 106 455T145 489T199 513T270 523Q313 523 344 511T395 478T425 429T435 370V0H420V369Q420 438 380 473T269 509Q225 509 190 496T130 460T92 411T78 357V0H63V517H78V419Z" />
<glyph unicode="o" glyph-name="o" horiz-adv-x="544" d="M272 -8Q216 -8 172 13T98 72T51 157T34 259Q34 313 50 361T97 445T172 502T272 524Q328 524 372 503T447 446T494 362T510 260Q510 206 494 158T447 73T372 14T272 -8ZM272 6Q317 6 357 23T428 73T477
153T495 260Q495 320 477 366T428 445T357 493T272 510Q227 510 187 494T116 445T67 366T49 259Q49 199 67 152T116 73T187 23T272 6Z" />
<glyph unicode="p" glyph-name="p" horiz-adv-x="545" d="M63 517H78V357H79Q90 400 111 431T161 483T222 514T290 524Q333 524 373 508T443 460T492 377T511 259Q511 198 494 149T448 65T377 11T288 -8Q249 -8 215 4T153 37T107 89T79 155H78V-166H63V517ZM287
6Q331 6 369 23T435 73T480 152T496 258Q496 324 479 371T433 450T366 495T286 510Q241 510 203 492T137 441T94 361T78 256Q78 199 93 153T137 74T203 24T287 6Z" />
<glyph unicode="q" glyph-name="q" horiz-adv-x="548" d="M261 7Q306 7 344 23T411 72T454 150T470 256Q470 316 455 363T411 442T345 492T262 510Q220 510 182 496T115 450T69 372T52 258Q52 199 68 153T112 74T179 25T261 7ZM470 157H469Q450 80 394 37T260
-7Q212 -7 171 12T101 65T54 149T37 259Q37 327 55 377T104 459T175 508T258 524Q293 524 326 514T387 484T436 433T469 358H470V517H485V-166H470V157Z" />
<glyph unicode="r" glyph-name="r" horiz-adv-x="318" d="M292 503Q274 509 247 509Q208 509 177 493T124 453T90 399T78 344V0H63V517H78V409H80Q106 465 150 494T248 523Q260 523 273 521T292 517V503Z" />
<glyph unicode="s" glyph-name="s" horiz-adv-x="469" d="M45 161Q51 89 98 48T244 6Q332 6 378 40T424 131Q424 162 414 184T382 223T325 250T238 268Q185 275 150 287T92 315T61 352T52 399Q52 425 62 448T93 488T147 514T225 524Q272 524 305 513T361 481T397
434T415 374H400Q395 404 384 429T352 472T300 500T225 510Q182 510 152 502T103 478T76 443T67 399Q67 376 75 358T104 324T157 299T241 281Q295 273 333 262T394 232T427 190T438 131Q438 96 424 70T384 27T323 1T244 -8Q140 -8 88 37T30 161H45Z" />
<glyph unicode="t" glyph-name="t" horiz-adv-x="281" d="M30 517H100V680H115V517H244V503H115V77Q115 43 131 26T189 8Q203 8 217 9T243 15H244V1Q234 -2 218 -4T189 -6Q141 -6 121 14T100 77V503H30V517Z" />
<glyph unicode="u" glyph-name="u" horiz-adv-x="489" d="M411 97H409Q400 78 384 60T345 26T291 2T222 -7Q180 -7 149 5T99 38T70 86T60 146V517H75V147Q75 78 114 43T223 7Q266 7 300 20T359 56T397 105T411 159V517H426V0H411V97Z" />
<glyph unicode="v" glyph-name="v" horiz-adv-x="436" d="M218 20L410 517H426L226 0H210L10 517H26L218 20Z" />
<glyph unicode="w" glyph-name="w" horiz-adv-x="710" d="M194 25L346 517H362L511 24L682 517H698L519 0H503L354 491L202 0H186L12 517H28L194 25Z" />
<glyph unicode="x" glyph-name="x" horiz-adv-x="479" d="M230 275L41 517H60L239 287L419 517H438L249 275L465 0H446L239 263L33 0H14L230 275Z" />
<glyph unicode="y" glyph-name="y" horiz-adv-x="445" d="M207 -45Q191 -84 179 -108T153 -146T124 -163T87 -168Q70 -168 58 -166T37 -160V-145H38Q47 -149 60 -151T87 -154Q104 -154 116 -151T141 -136T165 -101T193 -39L217 20L10 517H27L225 40L419 517H435L207 -45Z" />
<glyph unicode="z" glyph-name="z" horiz-adv-x="466" d="M60 14H433V0H42V14L399 503H58V517H418V503L60 14Z" />
<glyph unicode="{" glyph-name="braceleft" horiz-adv-x="262" d="M98 614Q98 693 128 723T224 754V740Q166 740 140 713T113 614V399Q113 340 72 322Q95 313 104 295T113 245V24Q113 -48 139 -76T224 -104V-118Q191 -118 168 -111T129 -87T106 -43T98 24V245Q98
277 86 296T39 315H32V329H39Q71 329 84 348T98 399V614Z" />
<glyph unicode="|" glyph-name="bar" horiz-adv-x="185" d="M85 754H100V-118H85V754Z" />
<glyph unicode="}" glyph-name="braceright" horiz-adv-x="262" d="M38 754Q103 754 133 724T164 614V399Q164 367 177 348T223 329H230V315H223Q189 315 177 296T164 245V24Q164 -16 157 -43T134 -86T95 -110T38 -118V-104Q96 -104 122 -76T149 24V245Q149 276
158 294T190 322Q149 340 149 399V614Q149 686 123 713T38 740V754Z" />
<glyph unicode="~" glyph-name="asciitilde" horiz-adv-x="400" d="M194 328Q174 343 158 353T116 363Q90 363 76 345T59 294H44Q46 330 64 353T118 377Q146 377 164 366T206 338Q226 323 242 313T284 303Q310 303 324 321T341 372H356Q354 336 336 313T282 289Q254
289 236 300T194 328Z" />
<glyph unicode="&#xa0;" glyph-name="uni00A0" horiz-adv-x="155" />
<glyph unicode="&#xa1;" glyph-name="exclamdown" horiz-adv-x="171" d="M80 411H91L93 152V-127H78V152L80 411ZM77 588H94V525H77V588Z" />
<glyph unicode="&#xa2;" glyph-name="cent" horiz-adv-x="523" d="M493 174Q488 136 473 104T433 48T370 9T284 -8V-85H270V-8Q215 -8 172 14T98 72T51 157T34 260Q34 313 50 361T96 445T171 502T270 524V591H284V524Q366 521 420 478T491 361H476Q467 399 449
426T405 472T348 499T284 510V6Q369 9 418 52T478 174H493ZM49 260Q49 201 67 154T115 75T185 24T270 6V510Q226 510 186 493T116 444T67 366T49 260Z" />
<glyph unicode="&#xa3;" glyph-name="sterling" horiz-adv-x="540" d="M39 342H122Q101 391 89 428T76 508Q76 550 90 584T132 643T199 680T287 694Q329 694 366 682T432 644T478 578T498 483H483Q481 536 465 573T422 634T361 669T287 680Q193 680 142 633T91
508Q91 468 103 431T137 342H307V328H143Q153 301 159 273T166 216Q166 162 150 124T101 49Q117 57 133 60T170 64Q202 64 227 54T274 34Q295 24 320 16T379 8Q417 8 449 24T509 70L519 60Q490 29 456 12T379 -6Q344 -6 318 2T268 22Q247 31 224 40T170 50Q136
50 110 40T51 -1L41 9Q92 52 121 101T151 216Q151 245 145 273T127 328H39V342Z" />
<glyph unicode="&#xa4;" glyph-name="currency" horiz-adv-x="454" d="M418 140L352 208Q328 183 297 170T227 156Q189 156 157 169T102 208L36 140L26 150L92 218Q71 244 60 277T48 349Q48 387 59 420T92 479L26 548L36 558L102 490Q125 515 157 529T227 543Q265
543 296 529T352 490L418 558L428 548L361 479Q382 453 394 420T406 349Q406 311 394 278T361 218L428 150L418 140ZM63 349Q63 312 75 280T108 223T160 184T227 170Q263 170 293 184T345 222T379 279T391 349Q391 386 379 419T346 476T294 515T227 529Q191 529
161 515T109 477T75 419T63 349Z" />
<glyph unicode="&#xa5;" glyph-name="yen" horiz-adv-x="544" d="M482 206H279V0H264V206H62V220H264V328H62V342H255L18 685H36L271 342L508 685H526L288 342H482V328H279V220H482V206Z" />
<glyph unicode="&#xa6;" glyph-name="brokenbar" horiz-adv-x="185" d="M85 754H100V358H85V754ZM85 294H100V-118H85V294Z" />
<glyph unicode="&#xa7;" glyph-name="section" horiz-adv-x="559" d="M523 183Q523 154 514 133T488 95T451 67T406 48Q435 24 444 2T453 -49Q453 -78 441 -101T406 -139T353 -163T287 -172Q204 -172 149 -131T85 -3H100Q104 -44 120 -73T161 -121T218 -149T287
-158Q320 -158 347 -151T395 -129T426 -94T438 -49Q438 -23 430 -4T401 34T341 77T243 136Q192 165 154 188T89 234T49 281T36 337Q36 388 68 420T159 470Q133 490 120 512T106 567Q106 623 149 655T274 688Q352 688 399 649T454 531H439Q431 600 389 637T274 674Q202
674 162 648T121 567Q121 537 136 515T181 471T251 427T343 374Q392 344 426 321T482 277T513 233T523 183ZM336 362Q276 398 238 419T172 460Q107 443 79 411T51 337Q51 311 60 291T93 251T154 206T251 148Q281 131 303 118T343 94T372 74T394 58Q416 65 436 75T473
101T498 136T508 183Q508 209 498 230T467 271T414 313T336 362Z" />
<glyph unicode="&#xa8;" glyph-name="dieresis" horiz-adv-x="434" d="M152 651H137V705H152V651ZM297 651H282V705H297V651Z" />
<glyph unicode="&#xa9;" glyph-name="copyright" horiz-adv-x="816" d="M408 -11Q332 -11 266 17T152 94T76 211T48 355Q48 432 75 499T151 615T266 693T408 722Q484 722 550 694T664 616T740 499T768 355Q768 278 741 211T665 95T550 17T408 -11ZM408 3Q481 3
544 30T654 104T727 216T754 355Q754 430 728 494T655 606T545 681T408 708Q335 708 272 681T162 607T89 495T62 355Q62 281 88 217T161 105T271 30T408 3ZM575 450Q571 474 559 496T528 535T481 563T417 574Q372 574 337 558T277 514T239 446T226 358Q226 308
240 268T279 200T339 157T415 141Q452 141 481 152T530 181T562 225T577 281H592Q589 250 577 222T542 173Q520 152 489 140T415 127Q372 127 335 143T271 189T227 261T211 358Q211 407 225 449T265 522T330 570T417 588Q456 588 486 577T538 546T573 502T590 450H575Z"
/>
<glyph unicode="&#xaa;" glyph-name="ordfeminine" horiz-adv-x="474" d="M426 232Q393 232 384 252T375 297V336Q356 285 309 257T196 228Q129 228 89 261T48 351Q48 388 62 411T101 449T157 469T225 481Q265 487 293 492T340 504T366 520T375 544V558Q375 620
343 653T241 687Q172 687 133 657T88 560H73Q74 588 83 613T113 658T164 689T241 701Q316 701 353 664T390 555V298Q390 268 399 257T426 246Q436 246 442 248T455 253H456V240Q452 237 444 235T426 232ZM196 242Q233 242 265 253T322 285T361 335T375 401V509Q370
503 361 498T335 487T293 477T230 467Q190 462 159 455T107 435T74 402T63 351Q63 321 75 300T106 267T149 248T196 242Z" />
<glyph unicode="&#xab;" glyph-name="guillemotleft" horiz-adv-x="375" d="M176 264V280L317 407V388L188 272L317 153V135L176 264ZM58 264V280L199 407V388L70 272L199 153V135L58 264Z" />
<glyph unicode="&#xac;" glyph-name="logicalnot" horiz-adv-x="553" d="M447 157V378H71V392H462V157H447Z" />
<glyph unicode="&#xad;" glyph-name="uni00AD" horiz-adv-x="314" d="M46 283H268V268H46V283Z" />
<glyph unicode="&#xae;" glyph-name="registered" horiz-adv-x="534" d="M267 249Q219 249 177 267T103 316T53 391T34 486Q34 537 52 580T102 655T176 705T267 723Q315 723 357 705T431 656T481 581T500 486Q500 435 482 392T432 317T358 267T267 249ZM267 263Q312
263 351 279T421 326T468 397T485 486Q485 534 468 575T421 645T352 692T267 709Q222 709 183 692T113 646T66 575T49 486Q49 438 66 397T113 326T182 280T267 263ZM193 361H179V617H280Q317 617 339 600T362 547Q362 497 313 484Q337 477 345 462T355 423Q356
405 357 394T359 377T362 369T366 364V361H352Q349 364 347 375T342 422Q340 458 321 467T273 477H193V361ZM193 490H277Q348 490 348 547Q348 576 330 590T279 604H193V490Z" />
<glyph unicode="&#xaf;" glyph-name="macron" horiz-adv-x="476" d="M129 664H347V650H129V664Z" />
<glyph unicode="&#xb0;" glyph-name="degree" horiz-adv-x="317" d="M159 462Q134 462 113 471T76 495T51 532T42 578Q42 602 51 623T75 660T112 685T159 694Q184 694 205 685T242 661T266 624T275 578Q275 554 267 533T243 496T206 471T159 462ZM159 476Q204
476 232 505T260 578Q260 621 232 650T159 680Q115 680 86 651T57 578Q57 535 86 506T159 476Z" />
<glyph unicode="&#xb1;" glyph-name="plusminus" horiz-adv-x="552" d="M61 355H268V548H283V355H491V341H283V144H268V341H61V355ZM61 14H491V0H61V14Z" />
<glyph unicode="&#xb2;" glyph-name="twosuperior" horiz-adv-x="339" d="M32 274Q32 308 43 333T73 377T116 412T166 443Q190 457 211 469T249 496T275 527T285 569Q285 616 256 645T167 675Q134 675 111 665T74 637T53 598T46 554H31Q31 578 38 602T62 646T104
677T167 689Q201 689 226 680T267 654T292 616T300 569Q300 542 290 523T262 488T222 459T174 432Q149 418 127 404T88 374T61 337T48 288H305V274H32Z" />
<glyph unicode="&#xb3;" glyph-name="threesuperior" horiz-adv-x="363" d="M198 500Q245 500 270 524T295 584Q295 626 263 651T179 676Q121 676 93 645T61 569H46Q47 593 56 614T81 653T122 680T179 690Q236 690 273 662T310 584Q310 552 293 529T241 494Q282
484 305 460T329 392Q329 364 318 341T288 302T242 278T184 269Q114 269 75 307T30 405H45Q50 351 85 317T184 283Q241 283 277 312T314 392Q314 440 281 463T198 486H155V500H198Z" />
<glyph unicode="&#xb4;" glyph-name="acute" horiz-adv-x="458" d="M282 725H299L234 604H218L282 725Z" />
<glyph unicode="&#xb5;" glyph-name="mu" horiz-adv-x="492" d="M414 98H412Q403 79 387 61T348 27T294 3T225 -6Q165 -6 129 17T77 77V-166H63V517H78V148Q78 79 117 44T226 8Q269 8 303 21T362 57T400 106T414 160V517H429V0H414V98Z" />
<glyph unicode="&#xb6;" glyph-name="paragraph" horiz-adv-x="444" d="M231 385Q137 385 87 428T37 552Q37 590 50 621T86 672Q135 715 222 715H369V0H354V701H277V0H262V385H231Z" />
<glyph unicode="&#xb7;" glyph-name="periodcentered" horiz-adv-x="121" d="M72 286H55V341H72V286Z" />
<glyph unicode="&#xb8;" glyph-name="cedilla" horiz-adv-x="505" d="M283 0L219 -60Q222 -58 231 -56T251 -54Q289 -54 309 -69T329 -111Q329 -146 301 -162T234 -179Q211 -179 185 -172T137 -150L144 -138Q163 -151 187 -158T234 -165Q267 -165 290 -153T314
-111Q314 -68 251 -68Q219 -68 196 -82L189 -72L264 0H283Z" />
<glyph unicode="&#xb9;" glyph-name="onesuperior" horiz-adv-x="220" d="M137 274V635Q123 609 97 600T31 591V605Q79 605 105 621T137 687H152V274H137Z" />
<glyph unicode="&#xba;" glyph-name="ordmasculine" horiz-adv-x="523" d="M262 223Q212 223 172 242T103 293T59 369T44 462Q44 511 59 554T102 630T171 682T262 701Q312 701 352 682T421 631T464 555T479 462Q479 413 464 370T421 294T353 242T262 223ZM262
237Q309 237 346 255T410 303T450 375T464 462Q464 508 450 548T410 620T347 669T262 687Q215 687 177 669T113 620T73 549T59 462Q59 416 73 375T113 304T177 255T262 237Z" />
<glyph unicode="&#xbb;" glyph-name="guillemotright" horiz-adv-x="375" d="M176 153L305 272L176 388V407L317 280V264L176 135V153ZM58 153L187 272L58 388V407L199 280V264L58 135V153Z" />
<glyph unicode="&#xbc;" glyph-name="onequarter" horiz-adv-x="743" d="M629 0V114H396V126L632 416H644V128H710V114H644V0H629ZM629 388L416 128H629V388ZM140 303V664Q126 638 100 629T34 620V634Q82 634 108 650T140 716H155V303H140ZM588 715L101 0H84L571
715H588Z" />
<glyph unicode="&#xbd;" glyph-name="onehalf" horiz-adv-x="765" d="M455 0Q455 34 466 59T496 103T539 138T589 169Q613 183 634 195T672 222T698 253T708 295Q708 342 679 371T590 401Q557 401 534 391T497 363T476 324T469 280H454Q454 304 461 328T485 372T527
403T590 415Q624 415 649 406T690 380T715 342T723 295Q723 268 713 249T685 214T645 185T597 158Q572 144 550 130T511 100T484 63T471 14H728V0H455ZM140 303V664Q126 638 100 629T34 620V634Q82 634 108 650T140 716H155V303H140ZM576 715L89 0H72L559 715H576Z"
/>
<glyph unicode="&#xbe;" glyph-name="threequarters" horiz-adv-x="838" d="M201 529Q248 529 273 553T298 613Q298 655 266 680T182 705Q124 705 96 674T64 598H49Q50 622 59 643T84 682T125 709T182 719Q239 719 276 691T313 613Q313 581 296 558T244 523Q285
513 308 489T332 421Q332 393 321 370T291 331T245 307T187 298Q117 298 78 336T33 434H48Q53 380 88 346T187 312Q244 312 280 341T317 421Q317 469 284 492T201 515H158V529H201ZM724 0V114H491V126L727 416H739V128H805V114H739V0H724ZM724 388L511 128H724V388ZM694
715L207 0H190L677 715H694Z" />
<glyph unicode="&#xbf;" glyph-name="questiondown" horiz-adv-x="483" d="M265 410Q265 372 261 346T244 297T212 254T162 208Q143 192 124 177T89 143T63 101T53 45Q53 9 67 -21T105 -73T164 -108T240 -121Q290 -121 327 -106T389 -63T427 0T443 79H458Q456
35 442 -4T401 -72T334 -118T240 -135Q194 -135 157 -121T94 -83T53 -26T38 45Q38 78 47 102T71 145T108 182T153 219Q181 241 199 260T229 301T246 349T251 410H265ZM248 588H265V525H248V588Z" />
<glyph unicode="&#xc0;" glyph-name="Agrave" horiz-adv-x="604" d="M471 256H133L34 0H18L293 715H311L586 0H570L471 256ZM138 270H466L302 695L138 270ZM304 756H288L221 871H238L304 756Z" />
<glyph unicode="&#xc1;" glyph-name="Aacute" horiz-adv-x="604" d="M471 256H133L34 0H18L293 715H311L586 0H570L471 256ZM138 270H466L302 695L138 270ZM359 871H376L314 756H298L359 871Z" />
<glyph unicode="&#xc2;" glyph-name="Acircumflex" horiz-adv-x="604" d="M471 256H133L34 0H18L293 715H311L586 0H570L471 256ZM138 270H466L302 695L138 270ZM405 758H388L303 850L218 758H201L295 862H311L405 758Z" />
<glyph unicode="&#xc3;" glyph-name="Atilde" horiz-adv-x="604" d="M471 256H133L34 0H18L293 715H311L586 0H570L471 256ZM138 270H466L302 695L138 270ZM232 844Q257 844 273 835T305 814T335 794T373 784Q393 784 405 798T420 845H434Q432 807 415 789T372
770Q348 770 332 779T300 800T269 820T231 830Q211 830 199 816T184 769H170Q172 805 189 824T232 844Z" />
<glyph unicode="&#xc4;" glyph-name="Adieresis" horiz-adv-x="604" d="M471 256H133L34 0H18L293 715H311L586 0H570L471 256ZM138 270H466L302 695L138 270ZM237 782H222V836H237V782ZM382 782H367V836H382V782Z" />
<glyph unicode="&#xc5;" glyph-name="Aring" horiz-adv-x="604" d="M471 256H133L34 0H18L293 715H311L586 0H570L471 256ZM138 270H466L302 695L138 270ZM302 754Q268 754 247 775T225 832Q225 867 246 888T302 909Q336 909 357 888T378 832Q378 797 357 776T302
754ZM302 767Q331 767 347 785T364 832Q364 861 348 878T302 896Q273 896 256 879T239 832Q239 803 256 785T302 767Z" />
<glyph unicode="&#xc6;" glyph-name="AE" horiz-adv-x="905" d="M452 378H814V364H452V14H859V0H437V256H137L38 0H22L297 715H849V701H452V378ZM142 270H437V701H308L142 270Z" />
<glyph unicode="&#xc7;" glyph-name="Ccedilla" horiz-adv-x="706" d="M640 510Q634 548 615 584T562 647T483 692T379 709Q305 709 246 683T147 610T85 499T63 358Q63 278 85 213T148 102T246 31T375 5Q437 5 486 25T569 80T624 159T650 253H664Q659 202 638
155T580 71Q549 40 507 19T411 -7L355 -60Q358 -58 367 -56T387 -54Q425 -54 445 -69T465 -111Q465 -146 437 -162T370 -179Q347 -179 321 -172T273 -150L280 -138Q299 -151 323 -158T370 -165Q403 -165 426 -153T450 -111Q450 -68 387 -68Q355 -68 332 -82L325
-72L391 -9H375Q301 -9 241 17T138 91T72 207T48 358Q48 438 71 505T137 620T241 696T379 723Q440 723 488 705T571 658T627 590T654 510H640Z" />
<glyph unicode="&#xc8;" glyph-name="Egrave" horiz-adv-x="598" d="M90 378H507V364H90V14H552V0H75V715H542V701H90V378ZM322 756H306L239 871H256L322 756Z" />
<glyph unicode="&#xc9;" glyph-name="Eacute" horiz-adv-x="598" d="M90 378H507V364H90V14H552V0H75V715H542V701H90V378ZM361 871H378L316 756H300L361 871Z" />
<glyph unicode="&#xca;" glyph-name="Ecircumflex" horiz-adv-x="598" d="M90 378H507V364H90V14H552V0H75V715H542V701H90V378ZM405 758H388L303 850L218 758H201L295 862H311L405 758Z" />
<glyph unicode="&#xcb;" glyph-name="Edieresis" horiz-adv-x="598" d="M90 378H507V364H90V14H552V0H75V715H542V701H90V378ZM252 782H237V836H252V782ZM397 782H382V836H397V782Z" />
<glyph unicode="&#xcc;" glyph-name="Igrave" horiz-adv-x="169" d="M92 0H77V715H92V0ZM90 756H74L7 871H24L90 756Z" />
<glyph unicode="&#xcd;" glyph-name="Iacute" horiz-adv-x="169" d="M92 0H77V715H92V0ZM140 871H157L95 756H79L140 871Z" />
<glyph unicode="&#xce;" glyph-name="Icircumflex" horiz-adv-x="169" d="M92 0H77V715H92V0ZM187 758H170L85 850L0 758H-17L77 862H93L187 758Z" />
<glyph unicode="&#xcf;" glyph-name="Idieresis" horiz-adv-x="169" d="M92 0H77V715H92V0ZM20 782H5V836H20V782ZM165 782H150V836H165V782Z" />
<glyph unicode="&#xd0;" glyph-name="Eth" horiz-adv-x="688" d="M87 354H13V368H87V715H348Q426 715 481 686T571 606T623 491T640 354Q640 282 622 218T568 105T475 28T341 0H87V354ZM342 13Q407 13 459 36T548 104T605 211T625 354Q625 433 606 497T552 606T465
676T349 701H101V368H359V354H101V13H342Z" />
<glyph unicode="&#xd1;" glyph-name="Ntilde" horiz-adv-x="685" d="M610 0H595L90 690V0H75V715H91L595 25V715H610V0ZM280 844Q305 844 321 835T353 814T383 794T421 784Q441 784 453 798T468 845H482Q480 807 463 789T420 770Q396 770 380 779T348 800T317
820T279 830Q259 830 247 816T232 769H218Q220 805 237 824T280 844Z" />
<glyph unicode="&#xd2;" glyph-name="Ograve" horiz-adv-x="765" d="M382 -8Q309 -8 248 19T143 95T73 210T48 357Q48 436 73 503T142 619T248 695T382 723Q455 723 516 696T622 620T692 504T717 357Q717 278 692 211T623 96T517 20T382 -8ZM382 6Q453 6 512 33T613
107T678 219T702 357Q702 431 679 495T613 607T512 682T382 709Q311 709 252 682T151 608T86 496T63 357Q63 283 86 219T151 107T252 33T382 6ZM392 756H376L309 871H326L392 756Z" />
<glyph unicode="&#xd3;" glyph-name="Oacute" horiz-adv-x="765" d="M382 -8Q309 -8 248 19T143 95T73 210T48 357Q48 436 73 503T142 619T248 695T382 723Q455 723 516 696T622 620T692 504T717 357Q717 278 692 211T623 96T517 20T382 -8ZM382 6Q453 6 512 33T613
107T678 219T702 357Q702 431 679 495T613 607T512 682T382 709Q311 709 252 682T151 608T86 496T63 357Q63 283 86 219T151 107T252 33T382 6ZM422 871H439L377 756H361L422 871Z" />
<glyph unicode="&#xd4;" glyph-name="Ocircumflex" horiz-adv-x="765" d="M382 -8Q309 -8 248 19T143 95T73 210T48 357Q48 436 73 503T142 619T248 695T382 723Q455 723 516 696T622 620T692 504T717 357Q717 278 692 211T623 96T517 20T382 -8ZM382 6Q453 6
512 33T613 107T678 219T702 357Q702 431 679 495T613 607T512 682T382 709Q311 709 252 682T151 608T86 496T63 357Q63 283 86 219T151 107T252 33T382 6ZM477 758H460L375 850L290 758H273L367 862H383L477 758Z" />
<glyph unicode="&#xd5;" glyph-name="Otilde" horiz-adv-x="765" d="M382 -8Q309 -8 248 19T143 95T73 210T48 357Q48 436 73 503T142 619T248 695T382 723Q455 723 516 696T622 620T692 504T717 357Q717 278 692 211T623 96T517 20T382 -8ZM382 6Q453 6 512 33T613
107T678 219T702 357Q702 431 679 495T613 607T512 682T382 709Q311 709 252 682T151 608T86 496T63 357Q63 283 86 219T151 107T252 33T382 6ZM313 844Q338 844 354 835T386 814T416 794T454 784Q474 784 486 798T501 845H515Q513 807 496 789T453 770Q429 770
413 779T381 800T350 820T312 830Q292 830 280 816T265 769H251Q253 805 270 824T313 844Z" />
<glyph unicode="&#xd6;" glyph-name="Odieresis" horiz-adv-x="765" d="M382 -8Q309 -8 248 19T143 95T73 210T48 357Q48 436 73 503T142 619T248 695T382 723Q455 723 516 696T622 620T692 504T717 357Q717 278 692 211T623 96T517 20T382 -8ZM382 6Q453 6 512
33T613 107T678 219T702 357Q702 431 679 495T613 607T512 682T382 709Q311 709 252 682T151 608T86 496T63 357Q63 283 86 219T151 107T252 33T382 6ZM314 782H299V836H314V782ZM459 782H444V836H459V782Z" />
<glyph unicode="&#xd7;" glyph-name="multiply" horiz-adv-x="524" d="M444 499L272 325L443 152L433 142L262 315L91 142L81 152L252 325L80 499L90 509L262 335L434 509L444 499Z" />
<glyph unicode="&#xd8;" glyph-name="Oslash" horiz-adv-x="765" d="M48 3L136 100Q93 149 70 214T46 358Q46 437 71 504T140 620T246 696T380 723Q450 723 509 698T613 627L700 723L710 713L623 617Q667 568 691 502T715 358Q715 279 690 212T621 97T515 21T380
-7Q309 -7 250 18T146 90L58 -7L48 3ZM380 7Q451 7 510 34T611 108T676 220T700 358Q700 432 678 494T613 605L156 101Q198 56 254 32T380 7ZM61 358Q61 284 83 222T146 111L603 616Q561 660 505 684T380 709Q309 709 250 682T149 608T84 497T61 358Z" />
<glyph unicode="&#xd9;" glyph-name="Ugrave" horiz-adv-x="642" d="M78 715V236Q78 173 97 129T149 58T226 18T321 5Q370 5 414 17T492 57T544 129T564 236V715H579V236Q579 169 558 123T502 47T420 4T321 -9Q268 -9 221 4T139 46T84 122T63 236V715H78ZM344
756H328L261 871H278L344 756Z" />
<glyph unicode="&#xda;" glyph-name="Uacute" horiz-adv-x="642" d="M78 715V236Q78 173 97 129T149 58T226 18T321 5Q370 5 414 17T492 57T544 129T564 236V715H579V236Q579 169 558 123T502 47T420 4T321 -9Q268 -9 221 4T139 46T84 122T63 236V715H78ZM357
871H374L312 756H296L357 871Z" />
<glyph unicode="&#xdb;" glyph-name="Ucircumflex" horiz-adv-x="642" d="M78 715V236Q78 173 97 129T149 58T226 18T321 5Q370 5 414 17T492 57T544 129T564 236V715H579V236Q579 169 558 123T502 47T420 4T321 -9Q268 -9 221 4T139 46T84 122T63 236V715H78ZM425
758H408L323 850L238 758H221L315 862H331L425 758Z" />
<glyph unicode="&#xdc;" glyph-name="Udieresis" horiz-adv-x="642" d="M78 715V236Q78 173 97 129T149 58T226 18T321 5Q370 5 414 17T492 57T544 129T564 236V715H579V236Q579 169 558 123T502 47T420 4T321 -9Q268 -9 221 4T139 46T84 122T63 236V715H78ZM255
782H240V836H255V782ZM400 782H385V836H400V782Z" />
<glyph unicode="&#xdd;" glyph-name="Yacute" horiz-adv-x="589" d="M294 337L554 715H571L302 324V0H287V324L18 715H35L294 337ZM342 871H359L297 756H281L342 871Z" />
<glyph unicode="&#xde;" glyph-name="Thorn" horiz-adv-x="557" d="M90 570H305Q357 570 398 561T470 529Q500 507 516 472T532 382Q532 282 473 237T292 191H90V0H75V715H90V570ZM90 556V205H292Q406 205 461 246T517 382Q517 431 502 464T460 518T393 547T305 556H90Z" />
<glyph unicode="&#xdf;" glyph-name="germandbls" horiz-adv-x="491" d="M197 416H238Q271 416 299 426T347 456T380 501T392 559Q392 626 351 667T235 709Q191 709 162 697T113 661T86 606T78 534V0H63V536Q63 577 72 611T101 670T154 709T235 723Q315 723 361
678T407 559Q407 504 376 465T291 412Q327 406 357 390T410 347T444 286T457 212Q457 164 443 124T402 56T335 11T243 -5Q231 -5 217 -4T189 0V14H190Q203 11 217 10T243 9Q291 9 328 24T390 65T429 129T442 212Q442 254 428 289T388 349T329 388T255 402H197V416Z"
/>
<glyph unicode="&#xe0;" glyph-name="agrave" horiz-adv-x="505" d="M459 -4Q441 -4 430 2T413 18T405 41T403 68V116H401Q393 89 375 66T330 27T270 1T198 -8Q123 -8 78 29T32 129Q32 168 47 194T90 236T153 261T230 275Q279 281 312 288T365 305T394 329T403
367Q403 435 366 472T248 510Q169 510 125 476T75 367H60Q62 398 72 426T105 477T162 511T248 524Q334 524 376 483T418 367V69Q418 34 428 22T459 10Q470 10 477 12T490 18H492V4Q487 1 479 -1T459 -4ZM198 6Q241 6 278 18T343 54T387 111T403 186V319Q397 310
387 303T359 288T311 275T236 263Q144 252 96 224T47 129Q47 95 61 72T96 34T145 13T198 6ZM249 604H233L165 725H182L249 604Z" />
<glyph unicode="&#xe1;" glyph-name="aacute" horiz-adv-x="505" d="M459 -4Q441 -4 430 2T413 18T405 41T403 68V116H401Q393 89 375 66T330 27T270 1T198 -8Q123 -8 78 29T32 129Q32 168 47 194T90 236T153 261T230 275Q279 281 312 288T365 305T394 329T403
367Q403 435 366 472T248 510Q169 510 125 476T75 367H60Q62 398 72 426T105 477T162 511T248 524Q334 524 376 483T418 367V69Q418 34 428 22T459 10Q470 10 477 12T490 18H492V4Q487 1 479 -1T459 -4ZM198 6Q241 6 278 18T343 54T387 111T403 186V319Q397 310
387 303T359 288T311 275T236 263Q144 252 96 224T47 129Q47 95 61 72T96 34T145 13T198 6ZM294 725H311L246 604H230L294 725Z" />
<glyph unicode="&#xe2;" glyph-name="acircumflex" horiz-adv-x="505" d="M459 -4Q441 -4 430 2T413 18T405 41T403 68V116H401Q393 89 375 66T330 27T270 1T198 -8Q123 -8 78 29T32 129Q32 168 47 194T90 236T153 261T230 275Q279 281 312 288T365 305T394 329T403
367Q403 435 366 472T248 510Q169 510 125 476T75 367H60Q62 398 72 426T105 477T162 511T248 524Q334 524 376 483T418 367V69Q418 34 428 22T459 10Q470 10 477 12T490 18H492V4Q487 1 479 -1T459 -4ZM198 6Q241 6 278 18T343 54T387 111T403 186V319Q397 310
387 303T359 288T311 275T236 263Q144 252 96 224T47 129Q47 95 61 72T96 34T145 13T198 6ZM333 604H316L231 696L146 604H129L223 708H239L333 604Z" />
<glyph unicode="&#xe3;" glyph-name="atilde" horiz-adv-x="505" d="M459 -4Q441 -4 430 2T413 18T405 41T403 68V116H401Q393 89 375 66T330 27T270 1T198 -8Q123 -8 78 29T32 129Q32 168 47 194T90 236T153 261T230 275Q279 281 312 288T365 305T394 329T403
367Q403 435 366 472T248 510Q169 510 125 476T75 367H60Q62 398 72 426T105 477T162 511T248 524Q334 524 376 483T418 367V69Q418 34 428 22T459 10Q470 10 477 12T490 18H492V4Q487 1 479 -1T459 -4ZM198 6Q241 6 278 18T343 54T387 111T403 186V319Q397 310
387 303T359 288T311 275T236 263Q144 252 96 224T47 129Q47 95 61 72T96 34T145 13T198 6ZM422 686Q447 686 463 677T495 656T525 636T563 626Q583 626 595 640T610 687H624Q622 649 605 631T562 612Q538 612 522 621T490 642T459 662T421 672Q401 672 389 658T374
611H360Q362 647 379 666T422 686Z" />
<glyph unicode="&#xe4;" glyph-name="adieresis" horiz-adv-x="505" d="M459 -4Q441 -4 430 2T413 18T405 41T403 68V116H401Q393 89 375 66T330 27T270 1T198 -8Q123 -8 78 29T32 129Q32 168 47 194T90 236T153 261T230 275Q279 281 312 288T365 305T394 329T403
367Q403 435 366 472T248 510Q169 510 125 476T75 367H60Q62 398 72 426T105 477T162 511T248 524Q334 524 376 483T418 367V69Q418 34 428 22T459 10Q470 10 477 12T490 18H492V4Q487 1 479 -1T459 -4ZM198 6Q241 6 278 18T343 54T387 111T403 186V319Q397 310
387 303T359 288T311 275T236 263Q144 252 96 224T47 129Q47 95 61 72T96 34T145 13T198 6ZM177 651H162V705H177V651ZM322 651H307V705H322V651Z" />
<glyph unicode="&#xe5;" glyph-name="aring" horiz-adv-x="505" d="M459 -4Q441 -4 430 2T413 18T405 41T403 68V116H401Q393 89 375 66T330 27T270 1T198 -8Q123 -8 78 29T32 129Q32 168 47 194T90 236T153 261T230 275Q279 281 312 288T365 305T394 329T403
367Q403 435 366 472T248 510Q169 510 125 476T75 367H60Q62 398 72 426T105 477T162 511T248 524Q334 524 376 483T418 367V69Q418 34 428 22T459 10Q470 10 477 12T490 18H492V4Q487 1 479 -1T459 -4ZM198 6Q241 6 278 18T343 54T387 111T403 186V319Q397 310
387 303T359 288T311 275T236 263Q144 252 96 224T47 129Q47 95 61 72T96 34T145 13T198 6ZM494 567Q460 567 439 588T418 644Q418 678 439 699T494 720Q528 720 549 699T570 644Q570 609 549 588T494 567ZM494 580Q523 580 539 598T556 644Q556 672 540 689T494
707Q465 707 449 690T432 644Q432 616 448 598T494 580Z" />
<glyph unicode="&#xe6;" glyph-name="ae" horiz-adv-x="861" d="M418 264Q418 207 431 159T469 77T533 23T625 4Q768 4 805 149H820Q813 117 799 88T761 38T704 3T625 -10Q580 -10 545 3T484 39T441 95T414 166Q408 116 387 82T335 28T269 0T198 -9Q123 -9 78
28T32 128Q32 167 47 193T89 235T152 261T230 275Q279 281 312 288T365 305T394 329T403 367Q403 433 366 471T248 510Q169 510 125 476T75 367H60Q62 398 72 426T105 477T162 511T248 524Q333 524 374 483T417 365Q427 399 444 428T487 478T546 512T620 524Q659
524 690 514T745 483Q786 450 806 394T829 264H418ZM403 319Q397 310 388 303T360 288T312 274T236 262Q144 251 96 223T47 128Q47 94 61 71T96 33T145 12T198 5Q241 5 278 17T344 53T387 115T403 203V319ZM814 278Q809 340 793 384T750 456T691 497T620 510Q577
510 541 495T478 449T436 376T418 278H814Z" />
<glyph unicode="&#xe7;" glyph-name="ccedilla" horiz-adv-x="523" d="M493 174Q488 139 475 108T439 53T383 14T307 -6L250 -60Q253 -58 262 -56T282 -54Q320 -54 340 -69T360 -111Q360 -146 332 -162T265 -179Q242 -179 216 -172T168 -150L175 -138Q194 -151
218 -158T265 -165Q298 -165 321 -153T345 -111Q345 -68 282 -68Q250 -68 227 -82L220 -72L287 -8H272Q217 -8 173 13T98 72T51 157T34 260Q34 314 50 362T97 446T172 503T272 524Q360 524 417 481T491 361H476Q467 401 447 429T400 475T340 501T272 510Q227 510
187 494T116 445T67 367T49 260Q49 201 67 154T115 74T186 24T272 6Q362 6 414 50T478 174H493Z" />
<glyph unicode="&#xe8;" glyph-name="egrave" horiz-adv-x="522" d="M49 265Q49 208 64 161T107 79T177 25T271 6Q342 6 394 42T466 151H481Q474 119 457 90T414 40T352 5T271 -8Q213 -8 169 13T95 70T50 157T34 266Q34 319 49 366T95 448T168 503T266 524Q346
524 398 481Q441 448 464 393T490 265H49ZM475 279Q470 341 451 385T404 456T339 497T266 510Q223 510 185 495T117 450T69 377T49 279H475ZM271 604H255L187 725H204L271 604Z" />
<glyph unicode="&#xe9;" glyph-name="eacute" horiz-adv-x="522" d="M49 265Q49 208 64 161T107 79T177 25T271 6Q342 6 394 42T466 151H481Q474 119 457 90T414 40T352 5T271 -8Q213 -8 169 13T95 70T50 157T34 266Q34 319 49 366T95 448T168 503T266 524Q346
524 398 481Q441 448 464 393T490 265H49ZM475 279Q470 341 451 385T404 456T339 497T266 510Q223 510 185 495T117 450T69 377T49 279H475ZM312 725H329L264 604H248L312 725Z" />
<glyph unicode="&#xea;" glyph-name="ecircumflex" horiz-adv-x="522" d="M49 265Q49 208 64 161T107 79T177 25T271 6Q342 6 394 42T466 151H481Q474 119 457 90T414 40T352 5T271 -8Q213 -8 169 13T95 70T50 157T34 266Q34 319 49 366T95 448T168 503T266 524Q346
524 398 481Q441 448 464 393T490 265H49ZM475 279Q470 341 451 385T404 456T339 497T266 510Q223 510 185 495T117 450T69 377T49 279H475ZM370 604H353L268 696L183 604H166L260 708H276L370 604Z" />
<glyph unicode="&#xeb;" glyph-name="edieresis" horiz-adv-x="522" d="M49 265Q49 208 64 161T107 79T177 25T271 6Q342 6 394 42T466 151H481Q474 119 457 90T414 40T352 5T271 -8Q213 -8 169 13T95 70T50 157T34 266Q34 319 49 366T95 448T168 503T266 524Q346
524 398 481Q441 448 464 393T490 265H49ZM475 279Q470 341 451 385T404 456T339 497T266 510Q223 510 185 495T117 450T69 377T49 279H475ZM201 651H186V705H201V651ZM346 651H331V705H346V651Z" />
<glyph unicode="&#xec;" glyph-name="igrave" horiz-adv-x="141" d="M90 604H74L1 725H18L90 604ZM90 0H75V517H90V0Z" />
<glyph unicode="&#xed;" glyph-name="iacute" horiz-adv-x="141" d="M142 725H159L82 604H66L142 725ZM78 0H63V517H78V0Z" />
<glyph unicode="&#xee;" glyph-name="icircumflex" horiz-adv-x="141" d="M161 604H144L71 696L-2 604H-19L63 708H79L161 604ZM79 0H64V517H79V0Z" />
<glyph unicode="&#xef;" glyph-name="idieresis" horiz-adv-x="141" d="M78 0H63V517H78V0ZM5 651H-10V705H5V651ZM150 651H135V705H150V651Z" />
<glyph unicode="&#xf0;" glyph-name="eth" horiz-adv-x="543" d="M169 588L326 640Q301 663 277 681T230 715H255Q275 701 297 684T342 645L440 678L444 664L354 634Q384 604 412 567T461 485T496 387T509 271Q509 212 494 162T450 73T376 14T274 -8Q220 -8 176
13T100 71T51 155T34 258Q34 312 50 360T95 444T167 502T264 523Q336 523 394 488T480 391Q460 466 422 524T338 628L173 574L169 588ZM494 271Q494 321 478 364T431 440T359 490T264 509Q213 509 174 489T106 435T64 355T49 258Q49 207 65 161T110 81T181 26T274
6Q328 6 369 26T438 83T480 167T494 271Z" />
<glyph unicode="&#xf1;" glyph-name="ntilde" horiz-adv-x="495" d="M78 419H80Q90 437 106 455T145 489T199 513T270 523Q313 523 344 511T395 478T425 429T435 370V0H420V369Q420 438 380 473T269 509Q225 509 190 496T130 460T92 411T78 357V0H63V517H78V419ZM432
686Q457 686 473 677T505 656T535 636T573 626Q593 626 605 640T620 687H634Q632 649 615 631T572 612Q548 612 532 621T500 642T469 662T431 672Q411 672 399 658T384 611H370Q372 647 389 666T432 686Z" />
<glyph unicode="&#xf2;" glyph-name="ograve" horiz-adv-x="544" d="M272 -8Q216 -8 172 13T98 72T51 157T34 259Q34 313 50 361T97 445T172 502T272 524Q328 524 372 503T447 446T494 362T510 260Q510 206 494 158T447 73T372 14T272 -8ZM272 6Q317 6 357 23T428
73T477 153T495 260Q495 320 477 366T428 445T357 493T272 510Q227 510 187 494T116 445T67 366T49 259Q49 199 67 152T116 73T187 23T272 6ZM273 604H257L189 725H206L273 604Z" />
<glyph unicode="&#xf3;" glyph-name="oacute" horiz-adv-x="544" d="M272 -8Q216 -8 172 13T98 72T51 157T34 259Q34 313 50 361T97 445T172 502T272 524Q328 524 372 503T447 446T494 362T510 260Q510 206 494 158T447 73T372 14T272 -8ZM272 6Q317 6 357 23T428
73T477 153T495 260Q495 320 477 366T428 445T357 493T272 510Q227 510 187 494T116 445T67 366T49 259Q49 199 67 152T116 73T187 23T272 6ZM315 725H332L267 604H251L315 725Z" />
<glyph unicode="&#xf4;" glyph-name="ocircumflex" horiz-adv-x="544" d="M272 -8Q216 -8 172 13T98 72T51 157T34 259Q34 313 50 361T97 445T172 502T272 524Q328 524 372 503T447 446T494 362T510 260Q510 206 494 158T447 73T372 14T272 -8ZM272 6Q317 6 357
23T428 73T477 153T495 260Q495 320 477 366T428 445T357 493T272 510Q227 510 187 494T116 445T67 366T49 259Q49 199 67 152T116 73T187 23T272 6ZM376 604H359L274 696L189 604H172L266 708H282L376 604Z" />
<glyph unicode="&#xf5;" glyph-name="otilde" horiz-adv-x="544" d="M272 -8Q216 -8 172 13T98 72T51 157T34 259Q34 313 50 361T97 445T172 502T272 524Q328 524 372 503T447 446T494 362T510 260Q510 206 494 158T447 73T372 14T272 -8ZM272 6Q317 6 357 23T428
73T477 153T495 260Q495 320 477 366T428 445T357 493T272 510Q227 510 187 494T116 445T67 366T49 259Q49 199 67 152T116 73T187 23T272 6ZM205 686Q230 686 246 677T278 656T308 636T346 626Q366 626 378 640T393 687H407Q405 649 388 631T345 612Q321 612 305
621T273 642T242 662T204 672Q184 672 172 658T157 611H143Q145 647 162 666T205 686Z" />
<glyph unicode="&#xf6;" glyph-name="odieresis" horiz-adv-x="544" d="M272 -8Q216 -8 172 13T98 72T51 157T34 259Q34 313 50 361T97 445T172 502T272 524Q328 524 372 503T447 446T494 362T510 260Q510 206 494 158T447 73T372 14T272 -8ZM272 6Q317 6 357
23T428 73T477 153T495 260Q495 320 477 366T428 445T357 493T272 510Q227 510 187 494T116 445T67 366T49 259Q49 199 67 152T116 73T187 23T272 6ZM207 651H192V705H207V651ZM352 651H337V705H352V651Z" />
<glyph unicode="&#xf7;" glyph-name="divide" horiz-adv-x="552" d="M61 334H491V320H61V334ZM285 454H268V506H285V454ZM285 147H268V199H285V147Z" />
<glyph unicode="&#xf8;" glyph-name="oslash" horiz-adv-x="544" d="M268 -8Q216 -8 175 10T103 61L43 -7L33 3L94 71Q62 108 46 156T30 259Q30 313 46 361T93 445T168 502T268 524Q320 524 361 506T433 455L492 522L502 512L443 445Q474 409 490 362T506 260Q506
206 490 158T443 73T368 14T268 -8ZM45 259Q45 202 60 158T103 82L424 445Q393 477 353 493T268 510Q223 510 183 494T112 445T63 366T45 259ZM268 6Q313 6 353 23T424 73T473 153T491 260Q491 315 476 358T433 434L112 72Q143 40 183 23T268 6Z" />
<glyph unicode="&#xf9;" glyph-name="ugrave" horiz-adv-x="489" d="M411 97H409Q400 78 384 60T345 26T291 2T222 -7Q180 -7 149 5T99 38T70 86T60 146V517H75V147Q75 78 114 43T223 7Q266 7 300 20T359 56T397 105T411 159V517H426V0H411V97ZM253 604H237L169
725H186L253 604Z" />
<glyph unicode="&#xfa;" glyph-name="uacute" horiz-adv-x="489" d="M411 97H409Q400 78 384 60T345 26T291 2T222 -7Q180 -7 149 5T99 38T70 86T60 146V517H75V147Q75 78 114 43T223 7Q266 7 300 20T359 56T397 105T411 159V517H426V0H411V97ZM291 725H308L243
604H227L291 725Z" />
<glyph unicode="&#xfb;" glyph-name="ucircumflex" horiz-adv-x="489" d="M411 97H409Q400 78 384 60T345 26T291 2T222 -7Q180 -7 149 5T99 38T70 86T60 146V517H75V147Q75 78 114 43T223 7Q266 7 300 20T359 56T397 105T411 159V517H426V0H411V97ZM346 604H329L244
696L159 604H142L236 708H252L346 604Z" />
<glyph unicode="&#xfc;" glyph-name="udieresis" horiz-adv-x="489" d="M411 97H409Q400 78 384 60T345 26T291 2T222 -7Q180 -7 149 5T99 38T70 86T60 146V517H75V147Q75 78 114 43T223 7Q266 7 300 20T359 56T397 105T411 159V517H426V0H411V97ZM175 651H160V705H175V651ZM320
651H305V705H320V651Z" />
<glyph unicode="&#xfd;" glyph-name="yacute" horiz-adv-x="445" d="M207 -45Q191 -84 179 -108T153 -146T124 -163T87 -168Q70 -168 58 -166T37 -160V-145H38Q47 -149 60 -151T87 -154Q104 -154 116 -151T141 -136T165 -101T193 -39L217 20L10 517H27L225 40L419
517H435L207 -45ZM527 725H544L479 604H463L527 725Z" />
<glyph unicode="&#xfe;" glyph-name="thorn" horiz-adv-x="545" d="M63 715H78V368H80Q107 447 164 485T290 524Q333 524 373 508T443 460T492 377T511 259Q511 198 494 149T448 66T377 12T288 -7Q250 -7 217 4T156 36T110 85T80 148H78V-166H63V715ZM287 7Q331
7 369 24T435 74T480 152T496 258Q496 324 479 371T433 450T366 495T286 510Q241 510 203 492T137 441T94 361T78 256Q78 199 93 153T137 74T203 25T287 7Z" />
<glyph unicode="&#xff;" glyph-name="ydieresis" horiz-adv-x="445" d="M207 -45Q191 -84 179 -108T153 -146T124 -163T87 -168Q70 -168 58 -166T37 -160V-145H38Q47 -149 60 -151T87 -154Q104 -154 116 -151T141 -136T165 -101T193 -39L217 20L10 517H27L225
40L419 517H435L207 -45ZM160 651H145V705H160V651ZM305 651H290V705H305V651Z" />
<glyph unicode="&#x100;" glyph-name="Amacron" horiz-adv-x="604" d="M471 256H133L34 0H18L293 715H311L586 0H570L471 256ZM138 270H466L302 695L138 270ZM193 801H411V787H193V801Z" />
<glyph unicode="&#x101;" glyph-name="amacron" horiz-adv-x="505" d="M459 -4Q441 -4 430 2T413 18T405 41T403 68V116H401Q393 89 375 66T330 27T270 1T198 -8Q123 -8 78 29T32 129Q32 168 47 194T90 236T153 261T230 275Q279 281 312 288T365 305T394 329T403
367Q403 435 366 472T248 510Q169 510 125 476T75 367H60Q62 398 72 426T105 477T162 511T248 524Q334 524 376 483T418 367V69Q418 34 428 22T459 10Q470 10 477 12T490 18H492V4Q487 1 479 -1T459 -4ZM198 6Q241 6 278 18T343 54T387 111T403 186V319Q397 310
387 303T359 288T311 275T236 263Q144 252 96 224T47 129Q47 95 61 72T96 34T145 13T198 6ZM135 664H353V650H135V664Z" />
<glyph unicode="&#x102;" glyph-name="Abreve" horiz-adv-x="604" d="M471 256H133L34 0H18L293 715H311L586 0H570L471 256ZM138 270H466L302 695L138 270ZM302 771Q248 771 219 796T186 861H200Q205 828 229 807T302 785Q350 785 374 806T404 861H418Q414 822
385 797T302 771Z" />
<glyph unicode="&#x103;" glyph-name="abreve" horiz-adv-x="505" d="M459 -4Q441 -4 430 2T413 18T405 41T403 68V116H401Q393 89 375 66T330 27T270 1T198 -8Q123 -8 78 29T32 129Q32 168 47 194T90 236T153 261T230 275Q279 281 312 288T365 305T394 329T403
367Q403 435 366 472T248 510Q169 510 125 476T75 367H60Q62 398 72 426T105 477T162 511T248 524Q334 524 376 483T418 367V69Q418 34 428 22T459 10Q470 10 477 12T490 18H492V4Q487 1 479 -1T459 -4ZM198 6Q241 6 278 18T343 54T387 111T403 186V319Q397 310
387 303T359 288T311 275T236 263Q144 252 96 224T47 129Q47 95 61 72T96 34T145 13T198 6ZM499 616Q445 616 416 641T383 706H397Q402 673 426 652T499 630Q547 630 571 651T601 706H615Q611 667 582 642T499 616Z" />
<glyph unicode="&#x104;" glyph-name="Aogonek" horiz-adv-x="604" d="M585 2Q546 -24 525 -48T504 -102Q504 -130 523 -144T569 -158Q587 -158 600 -155T621 -147H623V-160Q616 -164 601 -168T569 -172Q537 -172 513 -155T489 -102Q489 -72 509 -46T568 6L471
256H133L34 0H18L293 715H311L585 2ZM261 589L138 270H466L343 589L302 695L261 589Z" />
<glyph unicode="&#x105;" glyph-name="aogonek" horiz-adv-x="505" d="M418 69Q418 34 428 22T459 10Q470 10 477 12T490 18H492V4Q438 -20 411 -41T384 -95Q384 -122 403 -140T462 -158Q477 -158 487 -156T508 -149H510V-163Q502 -167 491 -169T462 -172Q416
-172 393 -150T369 -95Q369 -63 391 -42T450 -4Q434 -3 425 4T411 21T405 43T403 68V115H401Q393 88 375 65T330 26T270 0T198 -9Q123 -9 78 28T32 128Q32 167 47 193T90 235T153 261T230 275Q279 281 312 288T365 305T394 329T403 367Q403 435 366 472T248 510Q169
510 125 476T75 367H60Q62 398 72 426T105 477T162 511T248 524Q334 524 376 483T418 367V69ZM403 319Q397 310 387 303T359 288T311 275T236 263Q190 257 155 248T96 224T60 185T47 128Q47 94 61 71T96 33T145 12T198 5Q241 5 278 17T343 53T387 110T403 185V319Z"
/>
<glyph unicode="&#x106;" glyph-name="Cacute" horiz-adv-x="706" d="M640 510Q634 548 615 584T562 647T483 692T379 709Q305 709 246 683T147 610T85 499T63 358Q63 278 85 213T148 102T246 31T375 5Q437 5 486 25T569 80T624 159T650 253H664Q659 202 638 155T580
71Q544 35 493 13T375 -9Q301 -9 241 17T138 91T72 207T48 358Q48 438 71 505T137 620T241 696T379 723Q440 723 488 705T571 658T627 590T654 510H640ZM430 871H447L385 756H369L430 871Z" />
<glyph unicode="&#x107;" glyph-name="cacute" horiz-adv-x="523" d="M493 174Q488 135 473 102T430 45T363 6T272 -8Q217 -8 173 13T98 72T51 157T34 260Q34 314 50 362T97 446T172 503T272 524Q360 524 417 481T491 361H476Q467 401 447 429T400 475T340 501T272
510Q227 510 187 494T116 445T67 367T49 260Q49 201 67 154T115 74T186 24T272 6Q362 6 414 50T478 174H493ZM318 725H335L270 604H254L318 725Z" />
<glyph unicode="&#x108;" glyph-name="Ccircumflex" horiz-adv-x="706" d="M640 510Q634 548 615 584T562 647T483 692T379 709Q305 709 246 683T147 610T85 499T63 358Q63 278 85 213T148 102T246 31T375 5Q437 5 486 25T569 80T624 159T650 253H664Q659 202
638 155T580 71Q544 35 493 13T375 -9Q301 -9 241 17T138 91T72 207T48 358Q48 438 71 505T137 620T241 696T379 723Q440 723 488 705T571 658T627 590T654 510H640ZM476 758H459L374 850L289 758H272L366 862H382L476 758Z" />
<glyph unicode="&#x109;" glyph-name="ccircumflex" horiz-adv-x="523" d="M493 174Q488 135 473 102T430 45T363 6T272 -8Q217 -8 173 13T98 72T51 157T34 260Q34 314 50 362T97 446T172 503T272 524Q360 524 417 481T491 361H476Q467 401 447 429T400 475T340
501T272 510Q227 510 187 494T116 445T67 367T49 260Q49 201 67 154T115 74T186 24T272 6Q362 6 414 50T478 174H493ZM378 604H361L276 696L191 604H174L268 708H284L378 604Z" />
<glyph unicode="&#x10a;" glyph-name="Cdotaccent" horiz-adv-x="706" d="M640 510Q634 548 615 584T562 647T483 692T379 709Q305 709 246 683T147 610T85 499T63 358Q63 278 85 213T148 102T246 31T375 5Q437 5 486 25T569 80T624 159T650 253H664Q659 202 638
155T580 71Q544 35 493 13T375 -9Q301 -9 241 17T138 91T72 207T48 358Q48 438 71 505T137 620T241 696T379 723Q440 723 488 705T571 658T627 590T654 510H640ZM375 782H358V835H375V782Z" />
<glyph unicode="&#x10b;" glyph-name="cdotaccent" horiz-adv-x="523" d="M493 174Q488 135 473 102T430 45T363 6T272 -8Q217 -8 173 13T98 72T51 157T34 260Q34 314 50 362T97 446T172 503T272 524Q360 524 417 481T491 361H476Q467 401 447 429T400 475T340
501T272 510Q227 510 187 494T116 445T67 367T49 260Q49 201 67 154T115 74T186 24T272 6Q362 6 414 50T478 174H493ZM282 640H265V695H282V640Z" />
<glyph unicode="&#x10c;" glyph-name="Ccaron" horiz-adv-x="706" d="M640 510Q634 548 615 584T562 647T483 692T379 709Q305 709 246 683T147 610T85 499T63 358Q63 278 85 213T148 102T246 31T375 5Q437 5 486 25T569 80T624 159T650 253H664Q659 202 638 155T580
71Q544 35 493 13T375 -9Q301 -9 241 17T138 91T72 207T48 358Q48 438 71 505T137 620T241 696T379 723Q440 723 488 705T571 658T627 590T654 510H640ZM383 758H367L273 862H290L375 770L460 862H477L383 758Z" />
<glyph unicode="&#x10d;" glyph-name="ccaron" horiz-adv-x="523" d="M493 174Q488 135 473 102T430 45T363 6T272 -8Q217 -8 173 13T98 72T51 157T34 260Q34 314 50 362T97 446T172 503T272 524Q360 524 417 481T491 361H476Q467 401 447 429T400 475T340 501T272
510Q227 510 187 494T116 445T67 367T49 260Q49 201 67 154T115 74T186 24T272 6Q362 6 414 50T478 174H493ZM283 602H267L173 706H190L275 614L360 706H377L283 602Z" />
<glyph unicode="&#x10e;" glyph-name="Dcaron" horiz-adv-x="676" d="M75 715H336Q414 715 469 686T559 606T611 491T628 354Q628 282 610 218T556 105T463 28T329 0H75V715ZM330 13Q395 13 447 36T536 104T593 211T613 354Q613 433 594 497T540 606T453 676T337
701H89V13H330ZM291 758H275L181 862H198L283 770L368 862H385L291 758Z" />
<glyph unicode="&#x10f;" glyph-name="dcaron" horiz-adv-x="545" d="M524 587Q540 601 543 620T546 675V715H561V675Q561 637 556 613T524 571V587ZM258 7Q303 7 341 23T408 72T451 150T467 256Q467 316 452 363T408 442T342 492T259 510Q217 510 179 496T112
450T66 372T49 258Q49 199 65 153T109 74T176 25T258 7ZM467 157H466Q447 80 391 37T257 -7Q209 -7 168 12T98 65T51 149T34 259Q34 327 52 377T101 459T172 508T255 524Q290 524 323 514T384 484T433 433T466 358H467V715H482V0H467V157Z" />
<glyph unicode="&#x110;" glyph-name="Dcroat" horiz-adv-x="688" d="M87 354H13V368H87V715H348Q426 715 481 686T571 606T623 491T640 354Q640 282 622 218T568 105T475 28T341 0H87V354ZM342 13Q407 13 459 36T548 104T605 211T625 354Q625 433 606 497T552
606T465 676T349 701H101V368H359V354H101V13H342Z" />
<glyph unicode="&#x111;" glyph-name="dcroat" horiz-adv-x="545" d="M467 619V715H482V619H550V605H482V0H467V148H465Q443 76 389 35T257 -7Q209 -7 168 12T98 65T51 149T34 259Q34 327 52 377T101 459T172 508T255 524Q289 524 321 515T381 487T430 438T465
368H467V605H314V619H467ZM258 7Q303 7 341 23T408 72T451 150T467 256Q467 316 452 363T408 442T342 492T259 510Q217 510 179 496T112 450T66 372T49 258Q49 199 65 153T109 74T176 25T258 7Z" />
<glyph unicode="&#x112;" glyph-name="Emacron" horiz-adv-x="598" d="M90 378H507V364H90V14H552V0H75V715H542V701H90V378ZM199 801H417V787H199V801Z" />
<glyph unicode="&#x113;" glyph-name="emacron" horiz-adv-x="522" d="M49 265Q49 208 64 161T107 79T177 25T271 6Q342 6 394 42T466 151H481Q474 119 457 90T414 40T352 5T271 -8Q213 -8 169 13T95 70T50 157T34 266Q34 319 49 366T95 448T168 503T266 524Q346
524 398 481Q441 448 464 393T490 265H49ZM475 279Q470 341 451 385T404 456T339 497T266 510Q223 510 185 495T117 450T69 377T49 279H475ZM151 664H369V650H151V664Z" />
<glyph unicode="&#x114;" glyph-name="Ebreve" horiz-adv-x="598" d="M90 378H507V364H90V14H552V0H75V715H542V701H90V378ZM317 771Q263 771 234 796T201 861H215Q220 828 244 807T317 785Q365 785 389 806T419 861H433Q429 822 400 797T317 771Z" />
<glyph unicode="&#x115;" glyph-name="ebreve" horiz-adv-x="522" d="M49 265Q49 208 64 161T107 79T177 25T271 6Q342 6 394 42T466 151H481Q474 119 457 90T414 40T352 5T271 -8Q213 -8 169 13T95 70T50 157T34 266Q34 319 49 366T95 448T168 503T266 524Q346
524 398 481Q441 448 464 393T490 265H49ZM475 279Q470 341 451 385T404 456T339 497T266 510Q223 510 185 495T117 450T69 377T49 279H475ZM269 616Q215 616 186 641T153 706H167Q172 673 196 652T269 630Q317 630 341 651T371 706H385Q381 667 352 642T269 616Z"
/>
<glyph unicode="&#x116;" glyph-name="Edotaccent" horiz-adv-x="598" d="M90 378H507V364H90V14H552V0H75V715H542V701H90V378ZM324 782H307V835H324V782Z" />
<glyph unicode="&#x117;" glyph-name="edotaccent" horiz-adv-x="522" d="M49 265Q49 208 64 161T107 79T177 25T271 6Q342 6 394 42T466 151H481Q474 119 457 90T414 40T352 5T271 -8Q213 -8 169 13T95 70T50 157T34 266Q34 319 49 366T95 448T168 503T266 524Q346
524 398 481Q441 448 464 393T490 265H49ZM475 279Q470 341 451 385T404 456T339 497T266 510Q223 510 185 495T117 450T69 377T49 279H475ZM272 640H255V695H272V640Z" />
<glyph unicode="&#x118;" glyph-name="Eogonek" horiz-adv-x="598" d="M90 378H507V364H90V14H552V0H479Q442 -26 423 -50T403 -102Q403 -130 422 -144T468 -158Q486 -158 499 -155T520 -147H522V-160Q515 -164 500 -168T468 -172Q436 -172 412 -155T388 -102Q388
-73 405 -50T458 0H75V715H542V701H90V378Z" />
<glyph unicode="&#x119;" glyph-name="eogonek" horiz-adv-x="522" d="M49 264Q49 207 64 159T107 77T177 23T271 4Q342 4 394 40T466 149H481Q473 114 453 82T403 29Q368 5 346 -11T311 -42T293 -68T288 -95Q288 -122 307 -140T367 -158Q383 -158 394 -155T414
-148H416V-162Q408 -166 397 -169T367 -172Q319 -172 296 -150T273 -95Q273 -69 289 -47T339 -1Q323 -5 306 -7T271 -10Q213 -10 169 11T95 69T50 156T34 265Q34 318 49 365T95 447T168 503T266 524Q342 524 394 484Q439 451 463 395T490 264H49ZM475 278Q470 340
451 384T404 456T339 497T266 510Q223 510 185 495T117 449T69 376T49 278H475Z" />
<glyph unicode="&#x11a;" glyph-name="Ecaron" horiz-adv-x="598" d="M90 378H507V364H90V14H552V0H75V715H542V701H90V378ZM328 758H312L218 862H235L320 770L405 862H422L328 758Z" />
<glyph unicode="&#x11b;" glyph-name="ecaron" horiz-adv-x="522" d="M49 265Q49 208 64 161T107 79T177 25T271 6Q342 6 394 42T466 151H481Q474 119 457 90T414 40T352 5T271 -8Q213 -8 169 13T95 70T50 157T34 266Q34 319 49 366T95 448T168 503T266 524Q346
524 398 481Q441 448 464 393T490 265H49ZM475 279Q470 341 451 385T404 456T339 497T266 510Q223 510 185 495T117 450T69 377T49 279H475ZM274 602H258L164 706H181L266 614L351 706H368L274 602Z" />
<glyph unicode="&#x11c;" glyph-name="Gcircumflex" horiz-adv-x="735" d="M398 335V349H670V0H655V202Q647 157 624 119T567 52T487 7T388 -9Q307 -9 244 19T137 96T71 211T48 355Q48 428 69 495T132 612T236 693T380 723Q441 723 489 707T572 662T630 594T660
510H646Q638 551 617 587T563 651T484 693T380 709Q302 709 243 680T143 603T83 490T63 355Q63 281 84 217T147 106T249 32T388 5Q445 5 493 25T578 82T634 173T655 295V335H398ZM478 758H461L376 850L291 758H274L368 862H384L478 758Z" />
<glyph unicode="&#x11d;" glyph-name="gcircumflex" horiz-adv-x="540" d="M462 517H477V23Q477 -23 462 -61T414 -125Q388 -146 352 -157T267 -169Q172 -169 119 -138T58 -46H73Q82 -99 130 -127T267 -155Q317 -155 353 -142T414 -104T450 -48T462 23V166H461Q441
91 388 48T256 5Q208 5 168 23T97 76T51 158T34 265Q34 330 52 378T100 459T170 508T253 524Q295 524 330 511T391 475T435 422T461 356H462V517ZM257 19Q302 19 339 36T404 84T447 161T462 262Q462 319 447 364T405 442T340 492T257 510Q215 510 178 495T112 450T66
373T49 264Q49 208 65 163T109 85T175 36T257 19ZM360 604H343L258 696L173 604H156L250 708H266L360 604Z" />
<glyph unicode="&#x11e;" glyph-name="Gbreve" horiz-adv-x="735" d="M398 335V349H670V0H655V202Q647 157 624 119T567 52T487 7T388 -9Q307 -9 244 19T137 96T71 211T48 355Q48 428 69 495T132 612T236 693T380 723Q441 723 489 707T572 662T630 594T660 510H646Q638
551 617 587T563 651T484 693T380 709Q302 709 243 680T143 603T83 490T63 355Q63 281 84 217T147 106T249 32T388 5Q445 5 493 25T578 82T634 173T655 295V335H398ZM377 771Q323 771 294 796T261 861H275Q280 828 304 807T377 785Q425 785 449 806T479 861H493Q489
822 460 797T377 771Z" />
<glyph unicode="&#x11f;" glyph-name="gbreve" horiz-adv-x="540" d="M462 517H477V23Q477 -23 462 -61T414 -125Q388 -146 352 -157T267 -169Q172 -169 119 -138T58 -46H73Q82 -99 130 -127T267 -155Q317 -155 353 -142T414 -104T450 -48T462 23V166H461Q441
91 388 48T256 5Q208 5 168 23T97 76T51 158T34 265Q34 330 52 378T100 459T170 508T253 524Q295 524 330 511T391 475T435 422T461 356H462V517ZM257 19Q302 19 339 36T404 84T447 161T462 262Q462 319 447 364T405 442T340 492T257 510Q215 510 178 495T112 450T66
373T49 264Q49 208 65 163T109 85T175 36T257 19ZM256 616Q202 616 173 641T140 706H154Q159 673 183 652T256 630Q304 630 328 651T358 706H372Q368 667 339 642T256 616Z" />
<glyph unicode="&#x120;" glyph-name="Gdotaccent" horiz-adv-x="735" d="M398 335V349H670V0H655V202Q647 157 624 119T567 52T487 7T388 -9Q307 -9 244 19T137 96T71 211T48 355Q48 428 69 495T132 612T236 693T380 723Q441 723 489 707T572 662T630 594T660
510H646Q638 551 617 587T563 651T484 693T380 709Q302 709 243 680T143 603T83 490T63 355Q63 281 84 217T147 106T249 32T388 5Q445 5 493 25T578 82T634 173T655 295V335H398ZM389 782H372V835H389V782Z" />
<glyph unicode="&#x121;" glyph-name="gdotaccent" horiz-adv-x="540" d="M462 517H477V23Q477 -23 462 -61T414 -125Q388 -146 352 -157T267 -169Q172 -169 119 -138T58 -46H73Q82 -99 130 -127T267 -155Q317 -155 353 -142T414 -104T450 -48T462 23V166H461Q441
91 388 48T256 5Q208 5 168 23T97 76T51 158T34 265Q34 330 52 378T100 459T170 508T253 524Q295 524 330 511T391 475T435 422T461 356H462V517ZM257 19Q302 19 339 36T404 84T447 161T462 262Q462 319 447 364T405 442T340 492T257 510Q215 510 178 495T112 450T66
373T49 264Q49 208 65 163T109 85T175 36T257 19ZM264 640H247V695H264V640Z" />
<glyph unicode="&#x122;" glyph-name="uni0122" horiz-adv-x="735" d="M398 335V349H670V0H655V202Q647 157 624 119T567 52T487 7T388 -9Q307 -9 244 19T137 96T71 211T48 355Q48 428 69 495T132 612T236 693T380 723Q441 723 489 707T572 662T630 594T660 510H646Q638
551 617 587T563 651T484 693T380 709Q302 709 243 680T143 603T83 490T63 355Q63 281 84 217T147 106T249 32T388 5Q445 5 493 25T578 82T634 173T655 295V335H398ZM355 -188Q377 -171 382 -145T387 -92V-54H402V-95Q402 -124 394 -153T355 -204V-188Z" />
<glyph unicode="&#x123;" glyph-name="uni0123" horiz-adv-x="540" d="M281 745Q259 728 254 702T249 649V611H234V652Q234 667 235 681T242 710T256 737T281 761V745ZM462 517H477V23Q477 -23 462 -61T414 -125Q388 -146 352 -157T267 -169Q172 -169 119 -138T58
-46H73Q82 -99 130 -127T267 -155Q317 -155 353 -142T414 -104T450 -48T462 23V166H461Q441 91 388 48T256 5Q208 5 168 23T97 76T51 158T34 265Q34 330 52 378T100 459T170 508T253 524Q295 524 330 511T391 475T435 422T461 356H462V517ZM257 19Q302 19 339 36T404
84T447 161T462 262Q462 319 447 364T405 442T340 492T257 510Q215 510 178 495T112 450T66 373T49 264Q49 208 65 163T109 85T175 36T257 19Z" />
<glyph unicode="&#x124;" glyph-name="Hcircumflex" horiz-adv-x="671" d="M75 715H90V388H581V715H596V0H581V374H90V0H75V715ZM436 758H419L334 850L249 758H232L326 862H342L436 758Z" />
<glyph unicode="&#x125;" glyph-name="hcircumflex" horiz-adv-x="495" d="M78 419H80Q90 437 106 455T145 489T199 513T270 523Q313 523 344 511T395 478T425 429T435 370V0H420V369Q420 438 380 473T269 509Q225 509 190 496T130 460T92 411T78 357V0H63V715H78V419ZM340
758H323L238 850L153 758H136L230 862H246L340 758Z" />
<glyph unicode="&#x126;" glyph-name="Hbar" horiz-adv-x="671" d="M667 534H596V0H581V374H90V0H75V534H5V548H75V715H90V548H581V715H596V548H667V534ZM581 388V534H90V388H581Z" />
<glyph unicode="&#x127;" glyph-name="hbar" horiz-adv-x="495" d="M65 619V715H80V619H223V605H80V419H82Q92 437 108 455T147 489T201 513T272 523Q315 523 346 511T397 478T427 429T437 370V0H422V369Q422 438 382 473T271 509Q227 509 192 496T132 460T94
411T80 357V0H65V605H0V619H65Z" />
<glyph unicode="&#x128;" glyph-name="Itilde" horiz-adv-x="169" d="M92 0H77V715H92V0ZM15 844Q40 844 56 835T88 814T118 794T156 784Q176 784 188 798T203 845H217Q215 807 198 789T155 770Q131 770 115 779T83 800T52 820T14 830Q-6 830 -18 816T-33 769H-47Q-45
805 -28 824T15 844Z" />
<glyph unicode="&#x129;" glyph-name="itilde" horiz-adv-x="141" d="M156 613Q136 613 121 621T92 640T64 660T33 669Q-4 669 -5 615H-19Q-19 648 -5 665T34 683Q55 683 69 674T97 655T124 636T156 627Q176 627 184 640T194 681H208Q206 613 156 613ZM102 0H87V517H102V0Z"
/>
<glyph unicode="&#x12a;" glyph-name="Imacron" horiz-adv-x="169" d="M155 787H13V801H155V787ZM92 0H77V715H92V0Z" />
<glyph unicode="&#x12b;" glyph-name="imacron" horiz-adv-x="141" d="M4 664H143V650H4V664ZM81 0H66V517H81V0Z" />
<glyph unicode="&#x12c;" glyph-name="Ibreve" horiz-adv-x="169" d="M92 0H77V715H92V0ZM85 771Q31 771 2 796T-31 861H-17Q-12 828 12 807T85 785Q133 785 157 806T187 861H201Q197 822 168 797T85 771Z" />
<glyph unicode="&#x12d;" glyph-name="ibreve" horiz-adv-x="141" d="M78 0H63V517H78V0ZM70 616Q16 616 -13 641T-46 706H-32Q-27 673 -3 652T70 630Q118 630 142 651T172 706H186Q182 667 153 642T70 616Z" />
<glyph unicode="&#x12e;" glyph-name="Iogonek" horiz-adv-x="169" d="M92 2Q54 -24 34 -48T13 -102Q13 -130 32 -144T78 -158Q96 -158 109 -155T130 -147H132V-160Q125 -164 110 -168T78 -172Q46 -172 22 -155T-2 -102Q-2 -72 18 -47T77 7V715H92V2Z" />
<glyph unicode="&#x12f;" glyph-name="iogonek" horiz-adv-x="141" d="M99 -1Q63 -26 44 -48T24 -100Q24 -126 42 -142T97 -158Q113 -158 124 -155T144 -148H146V-161Q139 -165 127 -168T97 -172Q53 -172 31 -152T9 -100Q9 -82 16 -67T34 -39T58 -16T84 4V517H99V-1ZM99
650H84V706H99V650Z" />
<glyph unicode="&#x130;" glyph-name="Idotaccent" horiz-adv-x="169" d="M92 0H77V715H92V0ZM93 782H76V835H93V782Z" />
<glyph unicode="&#x131;" glyph-name="dotlessi" horiz-adv-x="141" d="M78 0H63V517H78V0Z" />
<glyph unicode="&#x132;" glyph-name="IJ" horiz-adv-x="588" d="M157 202V186Q157 98 202 51T331 3Q417 3 456 52T496 190V715H511V190Q511 97 468 43T331 -11Q243 -11 193 40T142 186V202H157ZM92 0H77V715H92V0Z" />
<glyph unicode="&#x133;" glyph-name="ij" horiz-adv-x="288" d="M225 517V-64Q225 -106 208 -126T148 -147Q137 -147 126 -145T105 -140V-126H106Q118 -130 127 -131T148 -133Q186 -133 198 -116T210 -64V517H225ZM78 0H63V517H78V0ZM225 650H210V706H225V650ZM78
650H63V706H78V650Z" />
<glyph unicode="&#x134;" glyph-name="Jcircumflex" horiz-adv-x="465" d="M45 202V186Q45 98 90 51T219 3Q305 3 344 52T384 190V715H399V190Q399 97 356 43T219 -11Q131 -11 81 40T30 186V202H45ZM335 758H318L233 850L148 758H131L225 862H241L335 758Z" />
<glyph unicode="&#x135;" glyph-name="jcircumflex" horiz-adv-x="163" d="M100 517V-64Q100 -106 83 -126T23 -147Q12 -147 1 -145T-20 -140V-126H-19Q-7 -130 2 -131T23 -133Q61 -133 73 -116T85 -64V517H100ZM182 604H165L92 696L19 604H2L84 708H100L182 604Z" />
<glyph unicode="&#x136;" glyph-name="uni0136" horiz-adv-x="618" d="M258 421L612 0H594L247 411L90 262V0H75V715H90V281L547 715H568L258 421ZM270 -188Q292 -171 297 -145T302 -92V-54H317V-95Q317 -124 309 -153T270 -204V-188Z" />
<glyph unicode="&#x137;" glyph-name="uni0137" horiz-adv-x="452" d="M186 297L78 191V0H63V715H78V210L389 517H409L196 307L445 0H428L186 297ZM454 -188Q476 -171 481 -145T486 -92V-54H501V-95Q501 -124 493 -153T454 -204V-188Z" />
<glyph unicode="&#x139;" glyph-name="Lacute" horiz-adv-x="551" d="M90 14H521V0H75V715H90V14ZM141 871H158L96 756H80L141 871Z" />
<glyph unicode="&#x13a;" glyph-name="lacute" horiz-adv-x="147" d="M128 871H145L83 756H67L128 871ZM81 0H66V715H81V0Z" />
<glyph unicode="&#x13b;" glyph-name="uni013B" horiz-adv-x="551" d="M90 14H521V0H75V715H90V14ZM268 -188Q290 -171 295 -145T300 -92V-54H315V-95Q315 -124 307 -153T268 -204V-188Z" />
<glyph unicode="&#x13c;" glyph-name="uni013C" horiz-adv-x="147" d="M81 0H66V715H81V0ZM34 -188Q56 -171 61 -145T66 -92V-54H81V-95Q81 -124 73 -153T34 -204V-188Z" />
<glyph unicode="&#x13d;" glyph-name="Lcaron" horiz-adv-x="551" d="M326 587Q342 601 345 620T348 675V715H363V675Q363 637 358 613T326 571V587ZM90 14H521V0H75V715H90V14Z" />
<glyph unicode="&#x13e;" glyph-name="lcaron" horiz-adv-x="147" d="M123 587Q139 601 142 620T145 675V715H160V675Q160 637 155 613T123 571V587ZM81 0H66V715H81V0Z" />
<glyph unicode="&#x13f;" glyph-name="Ldot" horiz-adv-x="551" d="M90 14H521V0H75V715H90V14ZM389 353H372V408H389V353Z" />
<glyph unicode="&#x140;" glyph-name="ldot" horiz-adv-x="147" d="M81 0H66V715H81V0ZM147 316H130V371H147V316Z" />
<glyph unicode="&#x141;" glyph-name="Lslash" horiz-adv-x="551" d="M393 453L90 279V14H521V0H75V270L3 229V244L75 285V715H90V294L393 469V453Z" />
<glyph unicode="&#x142;" glyph-name="lslash" horiz-adv-x="173" d="M171 425L98 364V0H83V351L13 293V311L83 370V715H98V382L171 444V425Z" />
<glyph unicode="&#x143;" glyph-name="Nacute" horiz-adv-x="685" d="M610 0H595L90 690V0H75V715H91L595 25V715H610V0ZM388 871H405L343 756H327L388 871Z" />
<glyph unicode="&#x144;" glyph-name="nacute" horiz-adv-x="495" d="M78 419H80Q90 437 106 455T145 489T199 513T270 523Q313 523 344 511T395 478T425 429T435 370V0H420V369Q420 438 380 473T269 509Q225 509 190 496T130 460T92 411T78 357V0H63V517H78V419ZM305
725H322L257 604H241L305 725Z" />
<glyph unicode="&#x145;" glyph-name="uni0145" horiz-adv-x="685" d="M610 0H595L90 690V0H75V715H91L595 25V715H610V0ZM314 -188Q336 -171 341 -145T346 -92V-54H361V-95Q361 -124 353 -153T314 -204V-188Z" />
<glyph unicode="&#x146;" glyph-name="uni0146" horiz-adv-x="495" d="M78 419H80Q90 437 106 455T145 489T199 513T270 523Q313 523 344 511T395 478T425 429T435 370V0H420V369Q420 438 380 473T269 509Q225 509 190 496T130 460T92 411T78 357V0H63V517H78V419ZM468
-188Q490 -171 495 -145T500 -92V-54H515V-95Q515 -124 507 -153T468 -204V-188Z" />
<glyph unicode="&#x147;" glyph-name="Ncaron" horiz-adv-x="685" d="M610 0H595L90 690V0H75V715H91L595 25V715H610V0ZM371 758H355L261 862H278L363 770L448 862H465L371 758Z" />
<glyph unicode="&#x148;" glyph-name="ncaron" horiz-adv-x="495" d="M78 419H80Q90 437 106 455T145 489T199 513T270 523Q313 523 344 511T395 478T425 429T435 370V0H420V369Q420 438 380 473T269 509Q225 509 190 496T130 460T92 411T78 357V0H63V517H78V419ZM260
602H244L150 706H167L252 614L337 706H354L260 602Z" />
<glyph unicode="&#x149;" glyph-name="napostrophe" horiz-adv-x="472" d="M55 419H57Q67 437 83 455T122 489T176 513T247 523Q290 523 321 511T372 478T402 429T412 370V0H397V369Q397 438 357 473T246 509Q202 509 167 496T107 460T69 411T55 357V0H40V517H55V419ZM6
587Q22 601 25 620T28 675V715H43V675Q43 637 38 613T6 571V587Z" />
<glyph unicode="&#x14c;" glyph-name="Omacron" horiz-adv-x="765" d="M382 -8Q309 -8 248 19T143 95T73 210T48 357Q48 436 73 503T142 619T248 695T382 723Q455 723 516 696T622 620T692 504T717 357Q717 278 692 211T623 96T517 20T382 -8ZM382 6Q453 6 512
33T613 107T678 219T702 357Q702 431 679 495T613 607T512 682T382 709Q311 709 252 682T151 608T86 496T63 357Q63 283 86 219T151 107T252 33T382 6ZM272 801H490V787H272V801Z" />
<glyph unicode="&#x14d;" glyph-name="omacron" horiz-adv-x="544" d="M272 -8Q216 -8 172 13T98 72T51 157T34 259Q34 313 50 361T97 445T172 502T272 524Q328 524 372 503T447 446T494 362T510 260Q510 206 494 158T447 73T372 14T272 -8ZM272 6Q317 6 357 23T428
73T477 153T495 260Q495 320 477 366T428 445T357 493T272 510Q227 510 187 494T116 445T67 366T49 259Q49 199 67 152T116 73T187 23T272 6ZM163 664H381V650H163V664Z" />
<glyph unicode="&#x14e;" glyph-name="Obreve" horiz-adv-x="765" d="M382 -8Q309 -8 248 19T143 95T73 210T48 357Q48 436 73 503T142 619T248 695T382 723Q455 723 516 696T622 620T692 504T717 357Q717 278 692 211T623 96T517 20T382 -8ZM382 6Q453 6 512
33T613 107T678 219T702 357Q702 431 679 495T613 607T512 682T382 709Q311 709 252 682T151 608T86 496T63 357Q63 283 86 219T151 107T252 33T382 6ZM387 771Q333 771 304 796T271 861H285Q290 828 314 807T387 785Q435 785 459 806T489 861H503Q499 822 470
797T387 771Z" />
<glyph unicode="&#x14f;" glyph-name="obreve" horiz-adv-x="544" d="M272 -8Q216 -8 172 13T98 72T51 157T34 259Q34 313 50 361T97 445T172 502T272 524Q328 524 372 503T447 446T494 362T510 260Q510 206 494 158T447 73T372 14T272 -8ZM272 6Q317 6 357 23T428
73T477 153T495 260Q495 320 477 366T428 445T357 493T272 510Q227 510 187 494T116 445T67 366T49 259Q49 199 67 152T116 73T187 23T272 6ZM272 616Q218 616 189 641T156 706H170Q175 673 199 652T272 630Q320 630 344 651T374 706H388Q384 667 355 642T272 616Z"
/>
<glyph unicode="&#x150;" glyph-name="Ohungarumlaut" horiz-adv-x="765" d="M382 -8Q309 -8 248 19T143 95T73 210T48 357Q48 436 73 503T142 619T248 695T382 723Q455 723 516 696T622 620T692 504T717 357Q717 278 692 211T623 96T517 20T382 -8ZM382 6Q453
6 512 33T613 107T678 219T702 357Q702 431 679 495T613 607T512 682T382 709Q311 709 252 682T151 608T86 496T63 357Q63 283 86 219T151 107T252 33T382 6ZM341 877H357L300 756H285L341 877ZM463 877H479L422 756H407L463 877Z" />
<glyph unicode="&#x151;" glyph-name="ohungarumlaut" horiz-adv-x="544" d="M272 -8Q216 -8 172 13T98 72T51 157T34 259Q34 313 50 361T97 445T172 502T272 524Q328 524 372 503T447 446T494 362T510 260Q510 206 494 158T447 73T372 14T272 -8ZM272 6Q317 6
357 23T428 73T477 153T495 260Q495 320 477 366T428 445T357 493T272 510Q227 510 187 494T116 445T67 366T49 259Q49 199 67 152T116 73T187 23T272 6ZM267 725H283L226 604H211L267 725ZM389 725H405L348 604H333L389 725Z" />
<glyph unicode="&#x152;" glyph-name="OE" horiz-adv-x="1040" d="M587 378H949V364H587V14H994V0H572V86Q565 71 550 55T511 25T452 2T372 -7Q303 -7 244 20T141 95T73 211T48 358Q48 438 72 505T140 620T243 696T372 723Q418 723 453 713T513 687T552 655T572
625V715H984V701H587V378ZM372 7Q422 7 459 19T522 49T559 89T572 132V571Q572 600 557 625T515 669T452 698T372 709Q304 709 248 682T150 608T86 497T63 358Q63 284 86 220T150 108T247 34T372 7Z" />
<glyph unicode="&#x153;" glyph-name="oe" horiz-adv-x="905" d="M247 -10Q191 -10 151 12T85 70T47 155T34 258Q34 312 46 360T85 444T151 502T247 524Q292 524 327 510T387 471T429 413T454 339Q462 378 479 412T522 470T584 509T664 524Q720 524 759 503T824
444Q847 410 859 365T873 264H462Q463 205 476 157T515 75T579 23T669 4Q812 4 849 149H864Q857 117 843 88T805 38T748 3T669 -10Q622 -10 586 4T524 43T480 104T455 181Q447 140 431 106T389 45T328 5T247 -10ZM247 4Q292 4 328 21T391 71T432 151T447 259Q447
319 433 365T392 444T329 493T247 510Q157 510 103 445T49 258Q49 137 103 71T247 4ZM858 278Q853 340 837 384T794 456T735 497T664 510Q621 510 585 495T522 449T480 376T462 278H858Z" />
<glyph unicode="&#x154;" glyph-name="Racute" horiz-adv-x="612" d="M90 0H75V715H343Q392 715 432 703T502 666T546 607T562 525Q562 453 527 406T414 344Q481 333 512 290T545 174Q546 118 549 85T557 35T566 12T574 2V0H557Q554 3 550 9T542 34T535 84T530
170Q528 247 491 290T365 335H90V0ZM90 349H336Q445 349 496 394T547 525Q547 610 492 655T343 701H90V349ZM345 871H362L300 756H284L345 871Z" />
<glyph unicode="&#x155;" glyph-name="racute" horiz-adv-x="318" d="M292 503Q274 509 247 509Q208 509 177 493T124 453T90 399T78 344V0H63V517H78V409H80Q106 465 150 494T248 523Q260 523 273 521T292 517V503ZM481 725H498L433 604H417L481 725Z" />
<glyph unicode="&#x156;" glyph-name="uni0156" horiz-adv-x="612" d="M90 0H75V715H343Q392 715 432 703T502 666T546 607T562 525Q562 453 527 406T414 344Q481 333 512 290T545 174Q546 118 549 85T557 35T566 12T574 2V0H557Q554 3 550 9T542 34T535 84T530
170Q528 247 491 290T365 335H90V0ZM90 349H336Q445 349 496 394T547 525Q547 610 492 655T343 701H90V349ZM279 -188Q301 -171 306 -145T311 -92V-54H326V-95Q326 -124 318 -153T279 -204V-188Z" />
<glyph unicode="&#x157;" glyph-name="uni0157" horiz-adv-x="318" d="M292 503Q274 509 247 509Q208 509 177 493T124 453T90 399T78 344V0H63V517H78V409H80Q106 465 150 494T248 523Q260 523 273 521T292 517V503ZM31 -188Q53 -171 58 -145T63 -92V-54H78V-95Q78
-124 70 -153T31 -204V-188Z" />
<glyph unicode="&#x158;" glyph-name="Rcaron" horiz-adv-x="612" d="M90 0H75V715H343Q392 715 432 703T502 666T546 607T562 525Q562 453 527 406T414 344Q481 333 512 290T545 174Q546 118 549 85T557 35T566 12T574 2V0H557Q554 3 550 9T542 34T535 84T530
170Q528 247 491 290T365 335H90V0ZM90 349H336Q445 349 496 394T547 525Q547 610 492 655T343 701H90V349ZM301 758H285L191 862H208L293 770L378 862H395L301 758Z" />
<glyph unicode="&#x159;" glyph-name="rcaron" horiz-adv-x="318" d="M292 503Q274 509 247 509Q208 509 177 493T124 453T90 399T78 344V0H63V517H78V409H80Q106 465 150 494T248 523Q260 523 273 521T292 517V503ZM437 602H421L327 706H344L429 614L514 706H531L437
602Z" />
<glyph unicode="&#x15a;" glyph-name="Sacute" horiz-adv-x="605" d="M45 227Q49 179 66 138T117 68T199 22T315 5Q426 5 486 54T546 184Q546 228 530 259T483 312T405 348T297 373Q239 383 195 397T120 433T75 484T60 555Q60 594 76 625T121 678T193 711T287
723Q398 723 459 668T534 521H519Q506 609 448 659T287 709Q188 709 132 668T75 555Q75 517 89 490T131 444T201 411T299 387Q361 376 410 361T492 323T543 266T561 184Q561 140 545 105T497 44T419 5T315 -9Q245 -9 193 9T106 58T52 133T30 227H45ZM336 871H353L291
756H275L336 871Z" />
<glyph unicode="&#x15b;" glyph-name="sacute" horiz-adv-x="469" d="M45 161Q51 89 98 48T244 6Q332 6 378 40T424 131Q424 162 414 184T382 223T325 250T238 268Q185 275 150 287T92 315T61 352T52 399Q52 425 62 448T93 488T147 514T225 524Q272 524 305 513T361
481T397 434T415 374H400Q395 404 384 429T352 472T300 500T225 510Q182 510 152 502T103 478T76 443T67 399Q67 376 75 358T104 324T157 299T241 281Q295 273 333 262T394 232T427 190T438 131Q438 96 424 70T384 27T323 1T244 -8Q140 -8 88 37T30 161H45ZM532
725H549L484 604H468L532 725Z" />
<glyph unicode="&#x15c;" glyph-name="Scircumflex" horiz-adv-x="605" d="M45 227Q49 179 66 138T117 68T199 22T315 5Q426 5 486 54T546 184Q546 228 530 259T483 312T405 348T297 373Q239 383 195 397T120 433T75 484T60 555Q60 594 76 625T121 678T193 711T287
723Q398 723 459 668T534 521H519Q506 609 448 659T287 709Q188 709 132 668T75 555Q75 517 89 490T131 444T201 411T299 387Q361 376 410 361T492 323T543 266T561 184Q561 140 545 105T497 44T419 5T315 -9Q245 -9 193 9T106 58T52 133T30 227H45ZM396 758H379L294
850L209 758H192L286 862H302L396 758Z" />
<glyph unicode="&#x15d;" glyph-name="scircumflex" horiz-adv-x="469" d="M45 161Q51 89 98 48T244 6Q332 6 378 40T424 131Q424 162 414 184T382 223T325 250T238 268Q185 275 150 287T92 315T61 352T52 399Q52 425 62 448T93 488T147 514T225 524Q272 524 305
513T361 481T397 434T415 374H400Q395 404 384 429T352 472T300 500T225 510Q182 510 152 502T103 478T76 443T67 399Q67 376 75 358T104 324T157 299T241 281Q295 273 333 262T394 232T427 190T438 131Q438 96 424 70T384 27T323 1T244 -8Q140 -8 88 37T30 161H45ZM329
604H312L227 696L142 604H125L219 708H235L329 604Z" />
<glyph unicode="&#x15e;" glyph-name="uni015E" horiz-adv-x="605" d="M45 227Q49 179 66 138T117 68T199 22T315 5Q426 5 486 54T546 184Q546 228 530 259T483 312T405 348T297 373Q239 383 195 397T120 433T75 484T60 555Q60 594 76 625T121 678T193 711T287
723Q398 723 459 668T534 521H519Q506 609 448 659T287 709Q188 709 132 668T75 555Q75 517 89 490T131 444T201 411T299 387Q361 376 410 361T492 323T543 266T561 184Q561 100 502 48T333 -9L279 -60Q282 -58 291 -56T311 -54Q349 -54 369 -69T389 -111Q389 -146
361 -162T294 -179Q271 -179 245 -172T197 -150L204 -138Q223 -151 247 -158T294 -165Q327 -165 350 -153T374 -111Q374 -68 311 -68Q279 -68 256 -82L249 -72L315 -9Q245 -9 193 9T106 58T52 133T30 227H45Z" />
<glyph unicode="&#x15f;" glyph-name="uni015F" horiz-adv-x="469" d="M45 161Q51 89 98 48T244 6Q332 6 378 40T424 131Q424 162 414 184T382 223T325 250T238 268Q185 275 150 287T92 315T61 352T52 399Q52 425 62 448T93 488T147 514T225 524Q272 524 305 513T361
481T397 434T415 374H400Q395 404 384 429T352 472T300 500T225 510Q182 510 152 502T103 478T76 443T67 399Q67 376 75 358T104 324T157 299T241 281Q295 273 333 262T394 232T427 190T438 131Q438 67 392 33T270 -7L214 -60Q217 -58 226 -56T246 -54Q284 -54
304 -69T324 -111Q324 -146 296 -162T229 -179Q206 -179 180 -172T132 -150L139 -138Q158 -151 182 -158T229 -165Q262 -165 285 -153T309 -111Q309 -68 246 -68Q214 -68 191 -82L184 -72L250 -8H244Q140 -8 88 37T30 161H45Z" />
<glyph unicode="&#x160;" glyph-name="Scaron" horiz-adv-x="605" d="M45 227Q49 179 66 138T117 68T199 22T315 5Q426 5 486 54T546 184Q546 228 530 259T483 312T405 348T297 373Q239 383 195 397T120 433T75 484T60 555Q60 594 76 625T121 678T193 711T287
723Q398 723 459 668T534 521H519Q506 609 448 659T287 709Q188 709 132 668T75 555Q75 517 89 490T131 444T201 411T299 387Q361 376 410 361T492 323T543 266T561 184Q561 140 545 105T497 44T419 5T315 -9Q245 -9 193 9T106 58T52 133T30 227H45ZM292 758H276L182
862H199L284 770L369 862H386L292 758Z" />
<glyph unicode="&#x161;" glyph-name="scaron" horiz-adv-x="469" d="M45 161Q51 89 98 48T244 6Q332 6 378 40T424 131Q424 162 414 184T382 223T325 250T238 268Q185 275 150 287T92 315T61 352T52 399Q52 425 62 448T93 488T147 514T225 524Q272 524 305 513T361
481T397 434T415 374H400Q395 404 384 429T352 472T300 500T225 510Q182 510 152 502T103 478T76 443T67 399Q67 376 75 358T104 324T157 299T241 281Q295 273 333 262T394 232T427 190T438 131Q438 96 424 70T384 27T323 1T244 -8Q140 -8 88 37T30 161H45ZM236
602H220L126 706H143L228 614L313 706H330L236 602Z" />
<glyph unicode="&#x162;" glyph-name="Tcommaaccent" horiz-adv-x="605" d="M295 0V701H30V715H575V701H310V0H295ZM263 -188Q285 -171 290 -145T295 -92V-54H310V-95Q310 -124 302 -153T263 -204V-188Z" />
<glyph unicode="&#x163;" glyph-name="tcommaaccent" horiz-adv-x="281" d="M30 517H100V680H115V517H244V503H115V77Q115 43 131 26T189 8Q203 8 217 9T243 15H244V1Q234 -2 218 -4T189 -6Q141 -6 121 14T100 77V503H30V517ZM389 -188Q411 -171 416 -145T421
-92V-54H436V-95Q436 -124 428 -153T389 -204V-188Z" />
<glyph unicode="&#x164;" glyph-name="Tcaron" horiz-adv-x="605" d="M295 0V701H30V715H575V701H310V0H295ZM311 758H295L201 862H218L303 770L388 862H405L311 758Z" />
<glyph unicode="&#x165;" glyph-name="tcaron" horiz-adv-x="281" d="M157 587Q173 601 176 620T179 675V715H194V675Q194 637 189 613T157 571V587ZM30 517H100V680H115V517H244V503H115V77Q115 43 131 26T189 8Q203 8 217 9T243 15H244V1Q234 -2 218 -4T189
-6Q141 -6 121 14T100 77V503H30V517Z" />
<glyph unicode="&#x166;" glyph-name="Tbar" horiz-adv-x="605" d="M295 0V374H112V388H295V701H30V715H575V701H310V388H494V374H310V0H295Z" />
<glyph unicode="&#x167;" glyph-name="tbar" horiz-adv-x="291" d="M40 517H110V680H125V517H254V503H125V342H244V328H125V77Q125 43 141 26T199 8Q213 8 227 9T253 15H254V1Q244 -2 228 -4T199 -6Q151 -6 131 14T110 77V328H30V342H110V503H40V517Z" />
<glyph unicode="&#x168;" glyph-name="Utilde" horiz-adv-x="642" d="M78 715V236Q78 173 97 129T149 58T226 18T321 5Q370 5 414 17T492 57T544 129T564 236V715H579V236Q579 169 558 123T502 47T420 4T321 -9Q268 -9 221 4T139 46T84 122T63 236V715H78ZM252
844Q277 844 293 835T325 814T355 794T393 784Q413 784 425 798T440 845H454Q452 807 435 789T392 770Q368 770 352 779T320 800T289 820T251 830Q231 830 219 816T204 769H190Q192 805 209 824T252 844Z" />
<glyph unicode="&#x169;" glyph-name="utilde" horiz-adv-x="489" d="M411 97H409Q400 78 384 60T345 26T291 2T222 -7Q180 -7 149 5T99 38T70 86T60 146V517H75V147Q75 78 114 43T223 7Q266 7 300 20T359 56T397 105T411 159V517H426V0H411V97ZM428 686Q453 686
469 677T501 656T531 636T569 626Q589 626 601 640T616 687H630Q628 649 611 631T568 612Q544 612 528 621T496 642T465 662T427 672Q407 672 395 658T380 611H366Q368 647 385 666T428 686Z" />
<glyph unicode="&#x16a;" glyph-name="Umacron" horiz-adv-x="642" d="M78 715V236Q78 173 97 129T149 58T226 18T321 5Q370 5 414 17T492 57T544 129T564 236V715H579V236Q579 169 558 123T502 47T420 4T321 -9Q268 -9 221 4T139 46T84 122T63 236V715H78ZM223
801H441V787H223V801Z" />
<glyph unicode="&#x16b;" glyph-name="umacron" horiz-adv-x="489" d="M411 97H409Q400 78 384 60T345 26T291 2T222 -7Q180 -7 149 5T99 38T70 86T60 146V517H75V147Q75 78 114 43T223 7Q266 7 300 20T359 56T397 105T411 159V517H426V0H411V97ZM132 664H350V650H132V664Z"
/>
<glyph unicode="&#x16c;" glyph-name="Ubreve" horiz-adv-x="642" d="M78 715V236Q78 173 97 129T149 58T226 18T321 5Q370 5 414 17T492 57T544 129T564 236V715H579V236Q579 169 558 123T502 47T420 4T321 -9Q268 -9 221 4T139 46T84 122T63 236V715H78ZM318
771Q264 771 235 796T202 861H216Q221 828 245 807T318 785Q366 785 390 806T420 861H434Q430 822 401 797T318 771Z" />
<glyph unicode="&#x16d;" glyph-name="ubreve" horiz-adv-x="489" d="M411 97H409Q400 78 384 60T345 26T291 2T222 -7Q180 -7 149 5T99 38T70 86T60 146V517H75V147Q75 78 114 43T223 7Q266 7 300 20T359 56T397 105T411 159V517H426V0H411V97ZM496 616Q442 616
413 641T380 706H394Q399 673 423 652T496 630Q544 630 568 651T598 706H612Q608 667 579 642T496 616Z" />
<glyph unicode="&#x16e;" glyph-name="Uring" horiz-adv-x="642" d="M78 715V236Q78 173 97 129T149 58T226 18T321 5Q370 5 414 17T492 57T544 129T564 236V715H579V236Q579 169 558 123T502 47T420 4T321 -9Q268 -9 221 4T139 46T84 122T63 236V715H78ZM322
754Q288 754 267 775T245 832Q245 867 266 888T322 909Q356 909 377 888T398 832Q398 797 377 776T322 754ZM322 767Q351 767 367 785T384 832Q384 861 368 878T322 896Q293 896 276 879T259 832Q259 803 276 785T322 767Z" />
<glyph unicode="&#x16f;" glyph-name="uring" horiz-adv-x="489" d="M411 97H409Q400 78 384 60T345 26T291 2T222 -7Q180 -7 149 5T99 38T70 86T60 146V517H75V147Q75 78 114 43T223 7Q266 7 300 20T359 56T397 105T411 159V517H426V0H411V97ZM494 567Q460 567
439 588T418 644Q418 678 439 699T494 720Q528 720 549 699T570 644Q570 609 549 588T494 567ZM494 580Q523 580 539 598T556 644Q556 672 540 689T494 707Q465 707 449 690T432 644Q432 616 448 598T494 580Z" />
<glyph unicode="&#x170;" glyph-name="Uhungarumlaut" horiz-adv-x="642" d="M78 715V236Q78 173 97 129T149 58T226 18T321 5Q370 5 414 17T492 57T544 129T564 236V715H579V236Q579 169 558 123T502 47T420 4T321 -9Q268 -9 221 4T139 46T84 122T63 236V715H78ZM281
877H297L240 756H225L281 877ZM403 877H419L362 756H347L403 877Z" />
<glyph unicode="&#x171;" glyph-name="uhungarumlaut" horiz-adv-x="489" d="M411 97H409Q400 78 384 60T345 26T291 2T222 -7Q180 -7 149 5T99 38T70 86T60 146V517H75V147Q75 78 114 43T223 7Q266 7 300 20T359 56T397 105T411 159V517H426V0H411V97ZM213 725H229L172
604H157L213 725ZM335 725H351L294 604H279L335 725Z" />
<glyph unicode="&#x172;" glyph-name="Uogonek" horiz-adv-x="642" d="M78 715V236Q78 173 97 129T149 58T226 18T321 5Q370 5 414 17T492 57T544 129T564 236V715H579V236Q579 182 566 143T530 75T473 27T400 -6Q349 -24 325 -48Q301 -72 301 -100Q301 -127 320
-142T375 -158Q392 -158 404 -155T426 -147H428V-161Q420 -166 407 -169T375 -172Q332 -172 309 -153T286 -100Q286 -72 306 -47T368 -6Q359 -8 344 -8T321 -9Q268 -9 221 4T139 46T84 122T63 236V715H78Z" />
<glyph unicode="&#x173;" glyph-name="uogonek" horiz-adv-x="489" d="M411 98H409Q400 79 384 61T345 27T291 3T222 -6Q180 -6 149 6T99 39T70 87T60 147V517H75V148Q75 79 114 44T223 8Q266 8 300 21T359 57T397 106T411 160V517H426V-1Q388 -26 366 -48T343
-100Q343 -126 361 -142T416 -158Q432 -158 443 -155T463 -148H465V-161Q458 -165 446 -168T416 -172Q372 -172 350 -152T328 -100Q328 -82 336 -67T356 -38T382 -15T411 4V98Z" />
<glyph unicode="&#x174;" glyph-name="Wcircumflex" horiz-adv-x="893" d="M455 715L648 28L854 715H871L656 0H640L446 685L253 0H237L22 715H39L245 29L438 715H455ZM546 758H529L444 850L359 758H342L436 862H452L546 758Z" />
<glyph unicode="&#x175;" glyph-name="wcircumflex" horiz-adv-x="710" d="M194 25L346 517H362L511 24L682 517H698L519 0H503L354 491L202 0H186L12 517H28L194 25ZM456 604H439L354 696L269 604H252L346 708H362L456 604Z" />
<glyph unicode="&#x176;" glyph-name="Ycircumflex" horiz-adv-x="589" d="M294 337L554 715H571L302 324V0H287V324L18 715H35L294 337ZM395 758H378L293 850L208 758H191L285 862H301L395 758Z" />
<glyph unicode="&#x177;" glyph-name="ycircumflex" horiz-adv-x="445" d="M207 -45Q191 -84 179 -108T153 -146T124 -163T87 -168Q70 -168 58 -166T37 -160V-145H38Q47 -149 60 -151T87 -154Q104 -154 116 -151T141 -136T165 -101T193 -39L217 20L10 517H27L225
40L419 517H435L207 -45ZM327 604H310L225 696L140 604H123L217 708H233L327 604Z" />
<glyph unicode="&#x178;" glyph-name="Ydieresis" horiz-adv-x="589" d="M294 337L554 715H571L302 324V0H287V324L18 715H35L294 337ZM230 782H215V836H230V782ZM375 782H360V836H375V782Z" />
<glyph unicode="&#x179;" glyph-name="Zacute" horiz-adv-x="617" d="M61 715H549V701L56 14H573V0H38V14L531 701H61V715ZM348 871H365L303 756H287L348 871Z" />
<glyph unicode="&#x17a;" glyph-name="zacute" horiz-adv-x="466" d="M60 14H433V0H42V14L399 503H58V517H418V503L60 14ZM289 725H306L241 604H225L289 725Z" />
<glyph unicode="&#x17b;" glyph-name="Zdotaccent" horiz-adv-x="617" d="M61 715H549V701L56 14H573V0H38V14L531 701H61V715ZM313 782H296V835H313V782Z" />
<glyph unicode="&#x17c;" glyph-name="zdotaccent" horiz-adv-x="466" d="M60 14H433V0H42V14L399 503H58V517H418V503L60 14ZM248 640H231V695H248V640Z" />
<glyph unicode="&#x17d;" glyph-name="Zcaron" horiz-adv-x="617" d="M61 715H549V701L56 14H573V0H38V14L531 701H61V715ZM311 758H295L201 862H218L303 770L388 862H405L311 758Z" />
<glyph unicode="&#x17e;" glyph-name="zcaron" horiz-adv-x="466" d="M60 14H433V0H42V14L399 503H58V517H418V503L60 14ZM247 602H231L137 706H154L239 614L324 706H341L247 602Z" />
<glyph unicode="&#x192;" glyph-name="uni0192" horiz-adv-x="350" d="M270 368H169L113 -27Q108 -62 101 -85T84 -124T58 -145T21 -152Q10 -152 2 -152T-17 -149V-135Q4 -138 21 -138Q57 -138 73 -113T99 -25L155 368H72V382H157L184 573Q194 640 217 666T285
693Q298 693 310 692T331 689V675Q323 677 310 678T285 679Q245 679 226 655T198 571L171 382H270V368Z" />
<glyph unicode="&#x1a0;" glyph-name="uni01A0" horiz-adv-x="765" d="M382 6Q453 6 512 33T613 107T678 219T702 357Q702 431 679 495T613 607T512 682T382 709Q311 709 252 682T151 608T86 496T63 357Q63 283 86 219T151 107T252 33T382 6ZM717 357Q717 278
692 211T623 96T517 20T382 -8Q309 -8 248 19T143 95T73 210T48 357Q48 436 73 503T142 619T248 695T382 723Q465 723 536 686Q558 674 593 674Q635 674 658 696T687 754H701Q697 712 669 686T593 660Q588 660 584 660T575 662Q641 613 679 535T717 357Z" />
<glyph unicode="&#x1a1;" glyph-name="uni01A1" horiz-adv-x="554" d="M272 6Q317 6 357 23T428 73T477 153T495 260Q495 320 477 366T428 445T357 493T272 510Q227 510 187 494T116 445T67 366T49 259Q49 199 67 152T116 73T187 23T272 6ZM510 260Q510 206 494
158T447 73T372 14T272 -8Q216 -8 172 13T98 72T51 157T34 259Q34 313 50 361T97 445T172 502T272 524Q305 524 329 517T374 502T412 487T450 480Q480 480 496 498T516 546H530Q528 511 507 489T450 466Q442 466 435 467T422 470Q466 434 488 379T510 260Z" />
<glyph unicode="&#x1af;" glyph-name="uni01AF" horiz-adv-x="683" d="M321 -9Q268 -9 221 4T139 46T84 122T63 236V715H78V236Q78 173 97 129T149 58T226 18T321 5Q370 5 414 17T492 57T544 129T564 236V715H577Q625 715 649 736T679 791H693Q689 752 660 727T579
701V236Q579 169 558 123T502 47T420 4T321 -9Z" />
<glyph unicode="&#x1b0;" glyph-name="uni01B0" horiz-adv-x="519" d="M409 97Q400 78 384 60T345 26T291 2T222 -7Q180 -7 149 5T99 38T70 86T60 146V517H75V147Q75 78 114 43T223 7Q266 7 300 20T359 56T397 105T411 159V517H416Q456 517 476 538T500 595H514Q512
557 490 532T426 503V0H411V97H409V97Z" />
<glyph unicode="&#x1fc;" glyph-name="AEacute" horiz-adv-x="905" d="M452 378H814V364H452V14H859V0H437V256H137L38 0H22L297 715H849V701H452V378ZM142 270H437V701H308L142 270ZM585 871H602L540 756H524L585 871Z" />
<glyph unicode="&#x1fd;" glyph-name="aeacute" horiz-adv-x="861" d="M418 264Q418 207 431 159T469 77T533 23T625 4Q768 4 805 149H820Q813 117 799 88T761 38T704 3T625 -10Q580 -10 545 3T484 39T441 95T414 166Q408 116 387 82T335 28T269 0T198 -9Q123
-9 78 28T32 128Q32 167 47 193T89 235T152 261T230 275Q279 281 312 288T365 305T394 329T403 367Q403 433 366 471T248 510Q169 510 125 476T75 367H60Q62 398 72 426T105 477T162 511T248 524Q333 524 374 483T417 365Q427 399 444 428T487 478T546 512T620
524Q659 524 690 514T745 483Q786 450 806 394T829 264H418ZM403 319Q397 310 388 303T360 288T312 274T236 262Q144 251 96 223T47 128Q47 94 61 71T96 33T145 12T198 5Q241 5 278 17T344 53T387 115T403 203V319ZM814 278Q809 340 793 384T750 456T691 497T620
510Q577 510 541 495T478 449T436 376T418 278H814ZM477 725H494L429 604H413L477 725Z" />
<glyph unicode="&#x1fe;" glyph-name="Oslashacute" horiz-adv-x="765" d="M48 3L136 100Q93 149 70 214T46 358Q46 437 71 504T140 620T246 696T380 723Q450 723 509 698T613 627L700 723L710 713L623 617Q667 568 691 502T715 358Q715 279 690 212T621 97T515
21T380 -7Q309 -7 250 18T146 90L58 -7L48 3ZM380 7Q451 7 510 34T611 108T676 220T700 358Q700 432 678 494T613 605L156 101Q198 56 254 32T380 7ZM61 358Q61 284 83 222T146 111L603 616Q561 660 505 684T380 709Q309 709 250 682T149 608T84 497T61 358ZM425
871H442L380 756H364L425 871Z" />
<glyph unicode="&#x1ff;" glyph-name="oslashacute" horiz-adv-x="544" d="M268 -8Q216 -8 175 10T103 61L43 -7L33 3L94 71Q62 108 46 156T30 259Q30 313 46 361T93 445T168 502T268 524Q320 524 361 506T433 455L492 522L502 512L443 445Q474 409 490 362T506
260Q506 206 490 158T443 73T368 14T268 -8ZM45 259Q45 202 60 158T103 82L424 445Q393 477 353 493T268 510Q223 510 183 494T112 445T63 366T45 259ZM268 6Q313 6 353 23T424 73T473 153T491 260Q491 315 476 358T433 434L112 72Q143 40 183 23T268 6ZM311 725H328L263
604H247L311 725Z" />
<glyph unicode="&#x218;" glyph-name="uni0218" horiz-adv-x="605" d="M45 227Q49 179 66 138T117 68T199 22T315 5Q426 5 486 54T546 184Q546 228 530 259T483 312T405 348T297 373Q239 383 195 397T120 433T75 484T60 555Q60 594 76 625T121 678T193 711T287
723Q398 723 459 668T534 521H519Q506 609 448 659T287 709Q188 709 132 668T75 555Q75 517 89 490T131 444T201 411T299 387Q361 376 410 361T492 323T543 266T561 184Q561 140 545 105T497 44T419 5T315 -9Q245 -9 193 9T106 58T52 133T30 227H45ZM280 -188Q302
-171 307 -145T312 -92V-54H327V-95Q327 -124 319 -153T280 -204V-188Z" />
<glyph unicode="&#x219;" glyph-name="uni0219" horiz-adv-x="469" d="M45 161Q51 89 98 48T244 6Q332 6 378 40T424 131Q424 162 414 184T382 223T325 250T238 268Q185 275 150 287T92 315T61 352T52 399Q52 425 62 448T93 488T147 514T225 524Q272 524 305 513T361
481T397 434T415 374H400Q395 404 384 429T352 472T300 500T225 510Q182 510 152 502T103 478T76 443T67 399Q67 376 75 358T104 324T157 299T241 281Q295 273 333 262T394 232T427 190T438 131Q438 96 424 70T384 27T323 1T244 -8Q140 -8 88 37T30 161H45ZM457
-188Q479 -171 484 -145T489 -92V-54H504V-95Q504 -124 496 -153T457 -204V-188Z" />
<glyph unicode="&#x21a;" glyph-name="uni021A" horiz-adv-x="605" d="M295 0V701H30V715H575V701H310V0H295ZM263 -188Q285 -171 290 -145T295 -92V-54H310V-95Q310 -124 302 -153T263 -204V-188Z" />
<glyph unicode="&#x21b;" glyph-name="uni021B" horiz-adv-x="281" d="M30 517H100V680H115V517H244V503H115V77Q115 43 131 26T189 8Q203 8 217 9T243 15H244V1Q234 -2 218 -4T189 -6Q141 -6 121 14T100 77V503H30V517ZM133 -188Q155 -171 160 -145T165 -92V-54H180V-95Q180
-124 172 -153T133 -204V-188Z" />
<glyph unicode="&#x237;" glyph-name="uni0237" horiz-adv-x="163" d="M100 517V-64Q100 -106 83 -126T23 -147Q12 -147 1 -145T-20 -140V-126H-19Q-7 -130 2 -131T23 -133Q61 -133 73 -116T85 -64V517H100Z" />
<glyph unicode="&#x2c6;" glyph-name="circumflex" horiz-adv-x="446" d="M325 604H308L223 696L138 604H121L215 708H231L325 604Z" />
<glyph unicode="&#x2c7;" glyph-name="caron" horiz-adv-x="446" d="M231 602H215L121 706H138L223 614L308 706H325L231 602Z" />
<glyph unicode="&#x2c9;" glyph-name="uni02C9" horiz-adv-x="476" d="M129 664H347V650H129V664Z" />
<glyph unicode="&#x2d8;" glyph-name="breve" horiz-adv-x="494" d="M247 616Q193 616 164 641T131 706H145Q150 673 174 652T247 630Q295 630 319 651T349 706H363Q359 667 330 642T247 616Z" />
<glyph unicode="&#x2d9;" glyph-name="dotaccent" horiz-adv-x="452" d="M234 640H217V695H234V640Z" />
<glyph unicode="&#x2da;" glyph-name="ring" horiz-adv-x="503" d="M251 567Q217 567 196 588T175 644Q175 678 196 699T251 720Q285 720 306 699T327 644Q327 609 306 588T251 567ZM251 580Q280 580 296 598T313 644Q313 672 297 689T251 707Q222 707 206 690T189
644Q189 616 205 598T251 580Z" />
<glyph unicode="&#x2db;" glyph-name="ogonek" horiz-adv-x="505" d="M240 0Q195 -20 173 -42T151 -93Q151 -120 170 -139T231 -158Q248 -158 258 -156T279 -149H281V-163Q273 -167 262 -169T231 -172Q182 -172 159 -149T136 -93Q136 -61 157 -39T213 0H240Z" />
<glyph unicode="&#x2dc;" glyph-name="tilde" horiz-adv-x="501" d="M180 686Q205 686 221 677T253 656T283 636T321 626Q341 626 353 640T368 687H382Q380 649 363 631T320 612Q296 612 280 621T248 642T217 662T179 672Q159 672 147 658T132 611H118Q120 647
137 666T180 686Z" />
<glyph unicode="&#x2dd;" glyph-name="hungarumlaut" horiz-adv-x="467" d="M201 725H217L160 604H145L201 725ZM323 725H339L282 604H267L323 725Z" />
<glyph unicode="&#x3c0;" glyph-name="pi" horiz-adv-x="604" d="M567 503H459V70Q459 38 472 25T511 11Q531 11 543 15T563 23H565V9Q557 4 544 1T511 -3Q478 -3 461 14T444 70V503H141V0H126V503H30V517H567V503Z" />
</font>
</defs>
</svg>
